<svg width="26" height="26" viewBox="0 0 26 26" fill="none" xmlns="http://www.w3.org/2000/svg">
<path opacity="0.2" d="M13 26C20.1797 26 26 20.1797 26 13C26 5.8203 20.1797 0 13 0C5.8203 0 0 5.8203 0 13C0 20.1797 5.8203 26 13 26Z" fill="#F7931A"/>
<path fill-rule="evenodd" clip-rule="evenodd" d="M18.5998 10.8077C18.2245 10.4988 17.7359 10.3441 17.1341 10.3439C17.7598 9.77993 17.9143 9.04894 17.5979 8.15078C17.4857 7.82447 17.3253 7.5574 17.1164 7.3492C16.9075 7.14097 16.6588 6.99368 16.3697 6.90744C16.0808 6.82096 15.7787 6.77561 15.4639 6.77089C15.1491 6.76619 14.7959 6.79384 14.4046 6.85387L13.9283 4.94357L12.8099 5.22242L13.2729 7.07964C13.0793 7.12793 12.7852 7.20661 12.3907 7.31571L11.9239 5.44332L10.8054 5.7222L11.2817 7.6325C11.1231 7.67742 10.8889 7.73854 10.5791 7.8158L9.03747 8.19204L9.34744 9.43527L10.1536 9.23428C10.5216 9.14253 10.7799 9.26068 10.9285 9.58858L11.4709 11.7642C11.5194 11.7522 11.5588 11.7451 11.5891 11.7429L11.4728 11.7719L12.2326 14.8191C12.2582 15.0865 12.1499 15.2504 11.9078 15.3108L11.1017 15.5118L11.2224 16.9552L12.675 16.593C12.767 16.5701 12.9004 16.5382 13.0754 16.497C13.2503 16.4561 13.3813 16.4248 13.4684 16.403L13.9504 18.336L15.0691 18.0571L14.5928 16.1468C14.7974 16.1013 15.0934 16.0302 15.4807 15.9336L15.9551 17.8362L17.0735 17.5574L16.5916 15.6243C16.9836 15.5052 17.3265 15.3796 17.6199 15.2472C17.9134 15.1148 18.186 14.9544 18.4371 14.7655C18.6882 14.5769 18.8862 14.3704 19.0309 14.1464C19.1757 13.9226 19.2756 13.6587 19.3313 13.3549C19.3865 13.0513 19.3865 12.7158 19.3308 12.3485C19.2189 11.6304 18.9751 11.1168 18.5998 10.8077ZM12.7526 8.67459L12.7527 8.67457L13.3329 11.0018C13.3572 10.9957 13.441 10.9762 13.5845 10.9431C13.728 10.91 13.8405 10.8819 13.9223 10.8589C14.0039 10.8359 14.1237 10.8005 14.2817 10.7531C14.4396 10.7058 14.5692 10.6586 14.6707 10.6118C14.7722 10.5651 14.8899 10.5062 15.0238 10.4352C15.1578 10.3643 15.2637 10.2882 15.3411 10.2072C15.4186 10.1262 15.4914 10.0356 15.5589 9.93549C15.6264 9.83546 15.6677 9.72181 15.6822 9.59477C15.6967 9.46762 15.6863 9.33329 15.651 9.19177C15.6094 9.02503 15.5423 8.88477 15.4496 8.77102C15.357 8.65721 15.2568 8.56944 15.1487 8.50781C15.0409 8.44615 14.9071 8.40432 14.7473 8.3825C14.5876 8.36056 14.444 8.35208 14.3167 8.35702C14.1894 8.36197 14.0355 8.37883 13.855 8.40773C13.6744 8.43665 13.5324 8.46534 13.4289 8.4938C13.3254 8.5223 13.1954 8.55738 13.0386 8.59923C12.882 8.64099 12.7867 8.6661 12.7527 8.67457L12.7527 8.67454L12.7526 8.67456L12.7526 8.67459ZM16.9916 13.4231C17.0428 13.3191 17.0768 13.2032 17.0939 13.0754C17.1109 12.9476 17.1018 12.8132 17.0665 12.6715C17.0212 12.4895 16.9445 12.3368 16.8365 12.2135C16.7286 12.0901 16.6101 11.9963 16.4809 11.9318C16.3517 11.8674 16.1932 11.825 16.0056 11.8048C15.8178 11.7844 15.6477 11.7772 15.4949 11.7831C15.342 11.789 15.1572 11.811 14.9405 11.849C14.7236 11.8869 14.5546 11.9211 14.4336 11.9513C14.3125 11.9815 14.157 12.0227 13.967 12.0755C13.777 12.1284 13.6626 12.1595 13.6239 12.1692L14.2627 14.7315C14.3015 14.7218 14.3913 14.7008 14.5324 14.6681C14.6734 14.6356 14.79 14.608 14.882 14.5851C14.974 14.5621 15.1014 14.5263 15.2641 14.4778C15.4269 14.4291 15.566 14.3837 15.6814 14.3415C15.797 14.2992 15.9295 14.2434 16.0795 14.1738C16.2292 14.1042 16.3548 14.0355 16.4561 13.9671C16.5573 13.8989 16.6592 13.8173 16.7613 13.7219C16.8635 13.6268 16.9403 13.527 16.9916 13.4231Z" fill="#F7931A"/>
<path fill-rule="evenodd" clip-rule="evenodd" d="M13 24C19.0751 24 24 19.0751 24 13C24 6.92487 19.0751 2 13 2C6.92487 2 2 6.92487 2 13C2 19.0751 6.92487 24 13 24Z" stroke="#F7931A" stroke-width="1.38125"/>
</svg>
