<svg width="17" height="16" viewBox="0 0 17 16" fill="none" xmlns="http://www.w3.org/2000/svg">
<g clip-path="url(#clip0_5_2870)">
<path d="M15.2231 10.2596C14.2175 14.2933 10.1321 16.7481 6.09792 15.7422C2.06548 14.7366 -0.389319 10.6509 0.61673 6.61759C1.6219 2.5835 5.70733 0.128512 9.74021 1.13412C13.774 2.13973 16.2287 6.22586 15.223 10.2597L15.2231 10.2596H15.2231Z" fill="#F7931A"/>
<path d="M11.2526 7.35964C11.4024 6.35764 10.6396 5.81903 9.59643 5.45972L9.93483 4.10242L9.10861 3.89655L8.77918 5.21811C8.56197 5.16393 8.33891 5.11289 8.1172 5.06228L8.44902 3.732L7.62331 3.52612L7.28472 4.88298C7.10497 4.84205 6.92843 4.80161 6.75715 4.75899L6.7581 4.75472L5.61872 4.4702L5.39893 5.35266C5.39893 5.35266 6.01192 5.49317 5.999 5.50182C6.33358 5.58533 6.39408 5.80681 6.38404 5.98236L5.99856 7.52864C6.0216 7.53449 6.05148 7.54296 6.08446 7.55621C6.05689 7.54936 6.02756 7.54189 5.99713 7.5346L5.45682 9.70072C5.41593 9.80237 5.31215 9.95492 5.07823 9.89699C5.08651 9.90899 4.47771 9.74713 4.47771 9.74713L4.0675 10.6929L5.14271 10.9609C5.34273 11.0111 5.53874 11.0636 5.73178 11.1129L5.38988 12.4858L6.21515 12.6917L6.55374 11.3334C6.77919 11.3946 6.99799 11.451 7.21218 11.5043L6.87473 12.8561L7.701 13.062L8.04286 11.6917C9.45176 11.9584 10.5111 11.8509 10.957 10.5765C11.3163 9.55053 10.9392 8.95873 10.1979 8.57282C10.7378 8.44831 11.1444 8.09324 11.2529 7.35975L11.2526 7.35957L11.2526 7.35964ZM9.36483 10.0067C9.10949 11.0327 7.38203 10.4781 6.82196 10.339L7.27567 8.52023C7.8357 8.66004 9.63169 8.93673 9.36487 10.0067H9.36483ZM9.62035 7.34477C9.38743 8.27802 7.94964 7.80389 7.48323 7.68763L7.89458 6.03808C8.36099 6.15434 9.863 6.37133 9.62043 7.34477H9.62035Z" fill="white"/>
</g>
<defs>
<clipPath id="clip0_5_2870">
<rect width="16" height="16" fill="white" transform="translate(0.36792)"/>
</clipPath>
</defs>
</svg>
