<svg width="17" height="16" viewBox="0 0 17 16" fill="none" xmlns="http://www.w3.org/2000/svg">
<g clip-path="url(#clip0_5_3044)">
<path d="M8.427 16C12.8453 16 16.427 12.4183 16.427 8C16.427 3.58172 12.8453 0 8.427 0C4.00872 0 0.427002 3.58172 0.427002 8C0.427002 12.4183 4.00872 16 8.427 16Z" fill="#988430"/>
<path d="M8.42708 15.7437C12.7038 15.7437 16.1708 12.2767 16.1708 7.99997C16.1708 3.72322 12.7038 0.256226 8.42708 0.256226C4.15033 0.256226 0.68335 3.72322 0.68335 7.99997C0.68335 12.2767 4.15033 15.7437 8.42708 15.7437Z" fill="#7A6A2A"/>
<path d="M8.42701 15.5806C12.6136 15.5806 16.0076 12.1867 16.0076 8.00002C16.0076 3.81338 12.6136 0.419434 8.42701 0.419434C4.24037 0.419434 0.846436 3.81338 0.846436 8.00002C0.846436 12.1867 4.24037 15.5806 8.42701 15.5806Z" fill="#BA9F33"/>
<path fill-rule="evenodd" clip-rule="evenodd" d="M3.92481 7.14553C3.87949 7.10415 3.83162 7.06268 3.78759 7.02129C3.74356 6.97991 3.69833 6.93844 3.65302 6.89705L3.51836 6.76905C3.49635 6.74704 3.47305 6.72767 3.45104 6.70557C3.42902 6.6862 3.40316 6.66418 3.38115 6.64473C3.20246 6.47518 3.02275 6.30562 2.84653 6.13599C3.02906 6.30298 3.20775 6.46878 3.39028 6.63824L3.45368 6.70173C3.4757 6.72366 3.49899 6.74311 3.52101 6.76513L3.65558 6.88937C3.70089 6.93076 3.74492 6.97223 3.79024 7.01737C3.83555 7.06251 3.87958 7.10406 3.92489 7.14536L3.92481 7.14553ZM1.55331 7.11993C1.55331 7.11993 2.20312 7.18718 2.52031 7.23249C2.81411 7.27396 3.73323 7.41501 3.73323 7.41501L1.55331 7.11993ZM1.55331 7.11993C1.73584 7.13546 1.91836 7.15483 2.10089 7.17429C2.19408 7.18334 2.28342 7.19366 2.37276 7.20271L2.50989 7.21832C2.55521 7.22472 2.59924 7.23121 2.64455 7.23769L3.18829 7.32439L3.46008 7.3697C3.54943 7.38523 3.63877 7.40212 3.73195 7.41765C3.64261 7.40861 3.54943 7.39564 3.46008 7.38267L3.18829 7.34384L2.64455 7.26363C2.59924 7.25715 2.55521 7.24802 2.50989 7.24162L2.37268 7.22583C2.28333 7.21678 2.19015 7.20381 2.10081 7.1934C1.91828 7.17147 1.73575 7.14809 1.55322 7.11968L1.55331 7.11993ZM3.66855 7.5843C3.66855 7.5843 2.97471 7.76043 2.74038 7.82775C2.50998 7.89115 1.81221 8.10346 1.81221 8.10346L3.66847 7.58439L3.66855 7.5843Z" fill="#CFB66C"/>
<path fill-rule="evenodd" clip-rule="evenodd" d="M3.66843 7.58435C3.51441 7.62966 3.36123 7.67369 3.20499 7.71517L2.74154 7.83941C2.58752 7.88472 2.43434 7.92876 2.28074 7.97407L2.05034 8.03747C1.97397 8.05949 1.89632 8.07886 1.81738 8.10096C1.89367 8.07536 1.97141 8.04916 2.04778 8.02715L2.27818 7.95342C2.43221 7.90546 2.58538 7.86015 2.73898 7.81228C2.89557 7.77345 3.04968 7.73198 3.20627 7.69443C3.35509 7.65688 3.51176 7.61942 3.66843 7.58444V7.58435ZM1.90929 8.5307C1.98557 8.5022 2.86587 8.09191 3.07042 7.99608C3.17282 7.94813 3.47046 7.84248 3.47046 7.84248L1.90929 8.5307Z" fill="#CFB66C"/>
<path fill-rule="evenodd" clip-rule="evenodd" d="M1.90926 8.53081C1.97651 8.50521 2.04 8.4739 2.10468 8.44412L2.29625 8.35478L2.68076 8.1697C2.80876 8.10886 2.93318 8.04171 3.06519 7.98454C3.13252 7.95612 3.19985 7.93283 3.26709 7.91081L3.36949 7.87848C3.40439 7.86943 3.43682 7.85902 3.47189 7.84998C3.34389 7.91081 3.20915 7.96261 3.08098 8.02208C2.95298 8.08557 2.82208 8.13736 2.68998 8.19428L2.29907 8.36638C2.16783 8.41954 2.03983 8.47646 1.90918 8.53081H1.90926ZM1.9946 8.88919C1.9946 8.88919 2.79195 8.42193 3.06638 8.27175C3.21009 8.19155 3.67481 7.96107 3.67481 7.96107L1.9946 8.88919Z" fill="#CFB66C"/>
<path fill-rule="evenodd" clip-rule="evenodd" d="M1.99463 8.88935C2.1292 8.80649 2.26642 8.72235 2.40364 8.63693L2.60844 8.5126C2.67833 8.47122 2.74565 8.43239 2.81691 8.391C2.8868 8.34953 2.95413 8.30814 3.02529 8.26932C3.05917 8.2484 3.09467 8.23022 3.13145 8.21496L3.24017 8.1606C3.38387 8.09071 3.52757 8.01946 3.67904 7.95862C3.54182 8.0454 3.40068 8.11922 3.25962 8.1955C3.18973 8.23433 3.11848 8.26932 3.04859 8.30814C2.9787 8.34697 2.91137 8.38844 2.84012 8.42599C2.77023 8.46738 2.7029 8.5062 2.63173 8.54375L2.4207 8.65895L1.9948 8.88935H1.99463ZM3.66837 8.06341C3.66837 8.06341 3.17258 8.44399 3.01207 8.56568C2.85155 8.68736 2.37906 9.02912 2.37906 9.02912L3.66837 8.06341Z" fill="#CFB66C"/>
<path fill-rule="evenodd" clip-rule="evenodd" d="M6.51371 11.1326L6.26001 10.6524L6.40755 10.0517L7.45997 9.64528L7.01205 8.72624L7.23341 7.79807L7.64898 6.96692L8.93316 6.76503L9.87678 5.86536L11.9144 6.01938L12.3143 8.19803L11.5441 10.9411L11.1053 12.3612L9.32663 12.4285L8.50078 11.8564L7.53378 11.4524L6.51371 11.1326Z" fill="#E2CC85"/>
<path fill-rule="evenodd" clip-rule="evenodd" d="M9.63351 11.1172C9.63351 11.1172 9.38749 11.2298 8.96791 11.2039C8.84648 11.0408 7.99605 10.9645 7.99605 10.9645C7.99605 10.9645 7.88989 10.9321 7.70216 11.0098C7.51323 11.0866 7.33454 11.0771 7.16754 11.1185C7.00055 11.1599 6.83474 10.9424 6.70674 10.8971C6.57874 10.8493 6.40902 10.7341 6.40902 10.7341L6.05062 10.6991L5.33092 10.3949L4.18753 9.25574L3.87684 9.74214L3.78101 10.3441L4.12669 11.0574L5.05742 11.9053L6.87229 12.3661L7.948 12.0491L9.29559 11.4795L9.63351 11.1171V11.1172Z" fill="#F1D789"/>
<path fill-rule="evenodd" clip-rule="evenodd" d="M3.18554 7.09118L3.41594 6.39351L3.69046 5.94295L4.57453 5.86914L4.30914 6.64327L3.57006 7.95849L3.87683 9.13257L3.33317 9.40435L3.16608 9.1481L3.03151 8.56042L3.02246 7.90021L3.18554 7.09118Z" fill="#F4ECB4"/>
<path fill-rule="evenodd" clip-rule="evenodd" d="M4.17701 11.0693L4.00745 10.8324C4.00745 10.8324 3.96214 10.7198 3.98808 10.6214C4.01368 10.5217 4.01001 10.5152 3.99712 10.4777C3.98424 10.4401 3.87544 10.3107 3.88192 10.1993C3.88832 10.0867 3.87288 10.0491 3.95565 9.95987C4.04235 9.87317 4.01649 9.72298 4.01649 9.72298L4.12913 9.79287L4.15473 9.75405C4.15473 9.75405 4.19612 9.78639 4.19612 9.8369C4.20517 9.76702 4.16762 9.44335 4.25304 9.36962C4.33846 9.29589 4.48992 9.71522 4.48992 9.71522L4.39674 9.10679L4.15721 8.48292L3.73131 7.91332L3.70571 7.28544V7.23108C3.70571 7.23108 3.51021 7.53145 3.45585 7.76868C3.41703 7.93175 3.51021 8.12981 3.49084 8.36413C3.47522 8.59718 3.45585 8.579 3.51277 8.67133C3.56969 8.76367 3.70827 8.95353 3.65391 9.09075C3.60604 9.20859 3.44288 9.12574 3.44288 9.12574C3.44288 9.12574 3.41054 9.22148 3.36651 9.25647C3.35098 9.19955 3.33417 9.16328 3.30311 9.12847C3.30046 9.15048 3.29406 9.18026 3.29406 9.18026C3.29406 9.18026 3.26556 9.09092 3.23706 8.97828C3.19832 8.82818 3.15685 8.63012 3.1193 8.52396C3.10377 8.58481 3.06494 8.76989 3.06494 8.76989L3.08696 9.05474L3.19311 9.44565L3.29551 9.70165L3.39518 10.0149L3.48179 10.2253L3.55168 10.3859L3.61253 10.7471L3.90633 11.0577L4.063 11.1277L4.17683 11.0694L4.17701 11.0693Z" fill="#F3E19D"/>
<path fill-rule="evenodd" clip-rule="evenodd" d="M3.33968 6.52156C3.33968 6.52156 3.12865 6.87996 3.06789 7.24125C3.00713 7.60255 2.95269 7.98433 2.99109 8.47618C3.02991 8.97204 3.10373 9.27617 3.16329 9.49368C3.26569 9.85489 3.53091 10.3572 3.53091 10.3572L3.53996 10.3377C3.49538 10.2532 3.4598 10.1643 3.4338 10.0723C3.39881 9.9351 3.38584 9.77203 3.3535 9.69822C3.325 9.62449 3.27713 9.56101 3.25383 9.47038C3.23182 9.38369 3.22823 9.24647 3.16065 9.14424C3.13214 9.10277 3.09716 8.99406 3.08683 8.88535C3.07386 8.72219 3.09332 8.53967 3.07779 8.38957C3.04929 8.13971 3.02991 7.97016 3.05577 7.83935C3.08163 7.70853 3.21637 7.33717 3.29923 7.042C3.35359 6.85299 3.32116 6.69376 3.42083 6.52933C3.5205 6.36626 3.58143 6.22256 3.60336 6.12289C3.62896 6.03227 3.33934 6.52156 3.33934 6.52156H3.33968Z" fill="#F2E8B0"/>
<path fill-rule="evenodd" clip-rule="evenodd" d="M4.34041 6.37805C4.34041 6.37805 4.23169 6.41048 4.17989 6.4674C4.12809 6.52175 4.10608 6.56707 4.03619 6.65897C3.9663 6.75088 3.96237 6.82597 3.90537 6.94117C3.84845 7.05381 3.72284 7.22337 3.70731 7.28421C3.69178 7.34506 3.66592 7.62982 3.63358 7.76447C3.60507 7.89913 3.66592 8.06485 3.66592 8.06485L3.73965 8.04923C3.73965 8.04923 3.73965 8.14506 3.81346 8.20983C3.88719 8.27324 3.90016 7.99488 3.90016 7.99488L4.17588 7.06414L4.59138 6.78194L4.63669 6.5541L4.34024 6.37805H4.34041Z" fill="#F5EEC0"/>
<path fill-rule="evenodd" clip-rule="evenodd" d="M4.54217 6.80001C4.54217 6.80001 4.34667 6.8129 4.25093 6.88287C4.21211 6.91129 4.19658 6.93459 4.15519 6.96957C4.07882 7.03298 4.00108 7.09126 3.96362 7.17438C3.92215 7.25716 3.87684 7.38277 3.84578 7.61967C3.83281 7.71934 3.83281 7.81125 3.82376 7.89155C3.81079 8.00027 3.79142 8.08697 3.80175 8.14756C3.81472 8.27181 3.94289 8.33658 3.95535 8.47764L4.22072 8.34306L4.47057 7.35785L5.00133 7.02504L4.70097 6.68848L4.54183 6.79941L4.54217 6.80001Z" fill="#E6DB9D"/>
<path fill-rule="evenodd" clip-rule="evenodd" d="M3.14218 13.434C3.14328 13.4242 3.14439 13.4145 3.1455 13.4045C3.18424 13.0717 3.19082 12.8195 3.21923 12.6615C3.26062 12.4376 3.28912 12.3543 3.28264 12.2705C3.27359 12.136 3.26326 12.0376 3.27624 11.934C3.29561 11.7968 3.43026 11.6337 3.42642 11.521C3.42378 11.4317 3.37847 11.3735 3.33964 11.3192C3.30081 11.2648 3.26975 11.2195 3.26975 11.2195C3.26975 11.2195 3.53514 11.037 3.53258 10.3016C3.538 10.3032 3.54321 10.3053 3.54811 10.3081L3.67884 10.6796L3.76819 10.7883L4.11123 11.4278L4.55267 11.8563L5.20505 12.2951L5.61414 12.7403L5.65553 13.9274L5.12091 14.6212L5.03336 14.7798C4.33777 14.4306 3.69992 13.9767 3.14209 13.4339L3.14218 13.434Z" fill="#E5CB7A"/>
<path fill-rule="evenodd" clip-rule="evenodd" d="M4.77539 14.5695C4.77539 14.5695 4.78444 14.4219 4.90612 14.3261C4.92558 14.3585 4.93846 14.3896 4.93462 14.4128C4.95664 14.3741 5.11066 14.1255 5.4589 14.0607C5.80715 13.9973 5.89128 13.7436 5.89128 13.7436L6.63035 13.0718L7.47565 12.2938L8.50348 11.9326L8.98382 11.8148C8.98382 11.8148 8.99286 11.8497 8.97477 11.9274C9.06403 11.921 9.26209 11.8757 9.46791 11.8032C9.55077 11.7708 9.6285 11.7578 9.66989 11.8006C9.73073 11.8575 9.73978 11.9922 9.74362 12.0724C9.84329 12.0504 9.95848 11.9546 10.0508 11.9637C10.1984 11.9792 10.3292 12.1527 10.4794 12.1527C10.6774 12.1527 10.7667 12.031 10.9052 11.9352C10.9881 11.8782 11.1071 11.8072 11.1745 11.7591C11.335 11.6413 13.0334 11.1222 13.0334 11.1222L13.6288 11.161L13.7246 11.8005L13.6734 13.4722C13.6671 13.4782 13.6608 13.4846 13.6544 13.4906L10.947 14.9047L7.19405 15.48C6.35338 15.3426 5.54213 15.0636 4.79485 14.6547L4.77565 14.5694L4.77539 14.5695Z" fill="#D8C173"/>
<path fill-rule="evenodd" clip-rule="evenodd" d="M3.36987 13.6466C3.42321 13.5351 3.47116 13.4418 3.47961 13.4084C3.48627 13.4757 3.49847 13.6232 3.52305 13.7801C3.47145 13.7362 3.42039 13.6917 3.36987 13.6465V13.6466Z" fill="#F1D789"/>
<path fill-rule="evenodd" clip-rule="evenodd" d="M6.11119 15.2196L6.59657 15.0846L6.63796 15.0976C6.63796 15.0976 6.65997 15.1106 6.65997 15.1545C6.72081 15.1196 6.77261 15.126 6.81016 15.1028C6.82953 15.1442 6.8489 15.2814 6.9344 15.2982C7.02366 15.3177 7.11949 15.2594 7.2166 15.1857C7.31234 15.1093 7.4214 15.0135 7.50392 14.9746C7.53419 15.0303 7.56101 15.0878 7.58422 15.1468C7.69293 15.0601 7.88195 14.708 8.15117 14.7144C8.22899 14.5305 8.35899 14.3734 8.5251 14.2626C8.77496 14.0931 8.93155 14.0801 9.12704 14.0956C9.20469 13.9948 9.30038 13.9092 9.40924 13.8432C9.44158 13.8562 9.53093 13.9105 9.64229 13.8587C9.75493 13.807 9.88173 13.6063 10.0487 13.5805C10.1387 13.5681 10.2302 13.5873 10.3076 13.6348C10.3076 13.6348 10.794 13.1519 11.1296 12.9914C11.1167 12.9526 11.0908 12.8063 11.4843 12.4826C11.5063 12.5021 11.4908 12.5565 11.5063 12.5594C11.5127 12.5594 11.6087 12.5181 11.7302 12.4248C11.8804 12.3122 12.0603 12.1944 12.169 12.162C12.3738 12.1012 12.5911 12.2254 12.5911 12.2254C12.6095 12.2125 12.6301 12.2028 12.6519 12.1969C12.7036 12.1879 12.7412 12.1814 12.7697 12.1713C12.7671 12.2387 12.8047 12.3539 12.7697 12.4535C12.8102 12.4763 12.8531 12.4946 12.8977 12.5079C12.8757 12.5558 12.8278 12.6775 12.7476 12.7357C12.8148 12.7681 12.8239 12.8056 12.9197 12.8381C12.8809 12.8925 12.8173 12.9858 12.789 13.0429C12.7605 13.1038 12.6581 13.3562 12.6128 13.4519C12.565 13.5478 12.5003 13.7238 12.4691 13.7592C12.438 13.7945 12.3254 13.9442 12.2387 14.018C12.3155 13.9895 12.6297 13.8937 12.763 13.8575C12.7233 13.9157 12.5222 14.2141 12.3288 14.501C11.403 15.056 10.3695 15.4072 9.29732 15.5313C8.22509 15.6555 7.13872 15.5496 6.1106 15.2209L6.11119 15.2196Z" fill="#E0CD81"/>
<path fill-rule="evenodd" clip-rule="evenodd" d="M4.57424 6.76498C4.57424 6.76498 4.46169 6.76498 4.43967 6.78051C4.41765 6.79604 4.55231 6.82846 4.5937 6.844C4.63509 6.85953 4.72443 6.93069 4.74773 6.9877C4.76974 7.04205 5.55678 7.35915 5.55678 7.35915L6.11341 7.33065L6.30533 7.06552L5.94027 6.74578L6.19627 5.99109L5.85715 6.04545L5.04162 6.53185L4.63253 6.68852L4.57424 6.76498Z" fill="#DFC57C"/>
<path fill-rule="evenodd" clip-rule="evenodd" d="M5.79663 7.01495C5.80468 7.02798 5.81601 7.03866 5.82949 7.04593C5.84297 7.05319 5.85812 7.05678 5.87343 7.05634C5.98863 7.05634 6.0947 7.08484 6.13873 7.14304C6.21254 7.23631 6.41709 7.53404 6.41709 7.53404L6.90639 7.71008L6.93796 7.13391L6.40335 6.76245L5.79492 6.98637V7.01487H5.79629L5.79663 7.01495Z" fill="#E5CC7C"/>
<path fill-rule="evenodd" clip-rule="evenodd" d="M5.70058 7.22853C5.70058 7.22853 5.78984 7.23502 5.90248 7.19354C6.01512 7.15207 6.2002 7.06281 6.2805 7.0978C6.39306 7.14567 6.36976 7.29586 6.49153 7.4306C6.56526 7.51346 6.69992 7.5109 6.77629 7.60024C6.85266 7.68959 7.1154 7.64812 7.1154 7.64812L7.21507 8.18572L6.81512 8.6984L6.6843 9.33524H6.14346L5.64938 9.13923L5.40601 8.55043L5.52769 7.95497L5.70058 7.22853Z" fill="#D2C281"/>
<path fill-rule="evenodd" clip-rule="evenodd" d="M6.74683 7.25433C6.76024 7.25847 6.77418 7.26065 6.78822 7.26082C6.77269 7.27379 6.74026 7.3022 6.75323 7.37601C6.7662 7.44983 6.80759 7.54301 6.77269 7.59992C6.80055 7.63038 6.82133 7.66663 6.83353 7.70607C6.85555 7.76956 6.86203 7.82775 7.00565 7.83688C6.98492 7.84964 6.96581 7.86485 6.94873 7.88219C6.94873 7.88219 7.0484 7.96889 7.09892 8.0491C7.15063 8.04688 7.28784 8.00421 7.28784 8.00421L7.31635 8.02367L7.37719 7.99807C7.37719 7.99807 7.32027 7.97606 7.36166 7.83756C7.40049 7.71588 7.43547 7.72237 7.43846 7.71332C7.44145 7.70428 7.46696 7.57611 7.46696 7.52432C7.48633 7.45708 7.50186 7.25254 7.50186 7.25254L7.46047 6.8008L7.22751 6.65967L7.03807 6.47681L6.85939 6.81335L6.74171 6.93068L6.73267 7.22191L6.74683 7.25433Z" fill="#E2C270"/>
<path fill-rule="evenodd" clip-rule="evenodd" d="M7.30737 6.87636C7.30737 6.87636 7.34876 6.99412 7.36438 7.08474C7.36988 7.06713 7.37292 7.04884 7.37342 7.03039C7.37342 7.03039 7.40576 7.20907 7.41216 7.28289C7.42513 7.28024 7.43776 7.2764 7.44066 7.28929C7.44357 7.30217 7.47309 7.44596 7.46626 7.52617C7.52017 7.43724 7.59476 7.36265 7.68369 7.30874C7.73549 7.27632 7.79633 7.24142 7.85982 7.23877C7.95949 7.23621 8.03194 7.30226 8.15106 7.30226C8.43838 7.30226 8.69865 7.09123 8.89022 7.02655C9.03128 6.97859 9.15296 6.94369 9.23838 6.86595C9.27985 6.83105 9.35367 6.75339 9.42091 6.63811C9.51025 6.48451 9.60344 6.35079 9.69671 6.33398C9.65451 6.34173 9.61158 6.34477 9.56871 6.34303C9.56871 6.34303 9.59721 6.31452 9.64551 6.2757C9.69381 6.23687 9.75166 6.189 9.83443 6.189C9.98206 6.189 10.0558 6.21093 10.1386 6.21093C10.2215 6.20837 10.2694 6.189 10.2694 6.189C10.2694 6.189 10.3562 6.24984 10.5516 6.24984C10.7471 6.2524 10.8778 6.26921 10.9801 6.27834C11.0824 6.28747 11.4254 6.24984 11.5238 6.25274C11.5879 6.25522 11.6509 6.27063 11.709 6.29806L11.3918 5.37646L10.2524 4.38062L9.57408 4.86087L8.53063 5.90424L7.52096 6.27834L7.30993 6.51523V6.87636H7.30737Z" fill="#CCB360"/>
<path fill-rule="evenodd" clip-rule="evenodd" d="M9.57268 6.34816C9.57268 6.34816 9.60119 6.31975 9.64897 6.28092C9.69676 6.2421 9.75522 6.19414 9.83799 6.19414C9.98554 6.19414 10.0594 6.21615 10.1422 6.21615C10.2251 6.21359 10.2729 6.19414 10.2729 6.19414C10.2729 6.19414 10.3598 6.2549 10.5552 6.2549C10.7507 6.25746 10.8814 6.27427 10.9837 6.28331C11.086 6.29236 11.429 6.2549 11.5274 6.25771C11.5915 6.26013 11.6545 6.27554 11.7125 6.30302L11.5688 5.88745L11.4018 5.57035L10.9254 5.04862C10.9254 5.04862 10.3537 4.71207 10.3493 4.70951C10.3468 4.70695 10.1513 4.65515 10.1513 4.65515L9.63344 4.96841L9.16359 6.18398L9.15454 6.43998L9.45868 6.58368C9.53505 6.45568 9.61928 6.35328 9.69821 6.34031C9.62696 6.34808 9.5726 6.34808 9.5726 6.34808L9.57268 6.34816Z" fill="#D5B457"/>
<path fill-rule="evenodd" clip-rule="evenodd" d="M9.56623 6.43497C9.52092 6.43753 9.48346 6.42849 9.47305 6.39615C9.43423 6.28743 9.40317 6.2719 9.37066 6.2719C9.33815 6.2719 9.29429 6.34179 9.26826 6.34819C9.24224 6.35459 9.21135 6.26798 9.21135 6.26798L9.18285 6.255C9.18285 6.255 9.01586 6.36372 8.8981 6.49189C8.78035 6.62006 8.58741 6.83758 8.50072 6.87632C8.41402 6.91506 8.11622 6.92811 8.01434 6.95013C7.91246 6.97215 7.79948 7.04596 7.78395 7.06277C7.76842 7.07958 7.82935 7.09767 7.83839 7.11448C7.84743 7.13001 7.73864 7.12353 7.72959 7.14008C7.72319 7.15305 7.75519 7.22678 7.77106 7.26433C7.79884 7.25052 7.82931 7.243 7.86032 7.24231C7.95998 7.23975 8.03252 7.3058 8.15155 7.3058C8.43894 7.3058 8.69911 7.09477 8.89068 7.03C9.03181 6.98213 9.15349 6.94714 9.23891 6.86949C9.28029 6.83459 9.3541 6.75685 9.42143 6.64165C9.47058 6.56272 9.51853 6.4889 9.56649 6.43455L9.56623 6.43497Z" fill="#D2B257"/>
<path fill-rule="evenodd" clip-rule="evenodd" d="M5.44462 12.8415C5.44462 12.8415 5.41902 12.7457 5.18179 12.4985C5.11446 12.4286 5.07308 12.3705 5.02777 12.3289C4.91512 12.2227 4.84908 12.1942 4.76886 12.1334C4.59282 12.0027 4.40124 12.0027 4.2537 11.8421C4.10616 11.6816 3.93421 11.3749 3.81474 11.0615C3.69698 10.7482 3.66455 10.6486 3.66455 10.6395C3.66455 10.6305 3.69698 10.5696 3.73836 10.5787C3.77975 10.5877 3.77975 10.6679 3.79016 10.6874C3.81078 10.7191 3.83417 10.749 3.86005 10.7767C3.92089 10.8466 4.00759 10.9303 4.05163 11.055C4.04258 10.9489 4.00631 10.8311 4.00631 10.8311C4.00631 10.8311 4.23416 10.9748 4.42829 11.1249C4.62379 11.2751 4.70401 11.3269 4.7611 11.4226C4.81818 11.5184 4.95267 11.7709 5.0171 11.8447C5.08153 11.9185 5.96431 12.1968 5.96431 12.1968L6.38424 12.5099L6.59271 12.9669L6.42955 13.2229L6.11629 13.2902L5.60753 13.0624L5.44462 12.8414V12.8415Z" fill="#D2B159"/>
<path fill-rule="evenodd" clip-rule="evenodd" d="M4.31445 11.2674C4.31445 11.2674 4.42061 11.4369 4.67951 11.5974C4.91255 11.7386 5.28145 11.8667 5.61032 11.9431C5.79925 11.9884 5.98827 12.0233 6.15782 12.026C6.61478 12.0324 6.92932 11.9017 7.31904 11.859C7.53007 11.837 7.78897 11.8201 8.0582 11.7566C8.4038 11.6737 8.60834 11.5804 8.8867 11.4494C9.0886 11.3562 9.27377 11.2863 9.42387 11.197C9.6349 11.0727 9.78893 10.9342 9.96762 10.8928C9.9456 10.9537 9.9223 11.0624 9.74626 11.175C9.83945 11.1724 9.96762 11.166 9.96762 11.166C9.96762 11.166 9.84337 11.2397 9.62458 11.4054C9.48992 11.5078 9.31132 11.6811 9.12879 11.7963C9.01094 11.8701 8.88277 11.9243 8.79863 11.9685C8.59383 12.0812 8.51123 12.1381 8.37666 12.2757C8.42453 12.2732 8.42846 12.2757 8.42846 12.2757C8.42846 12.2757 8.25882 12.2977 8.13722 12.3624C8.11162 12.3624 8.06724 12.3534 7.98959 12.3754C7.92875 12.3948 7.84845 12.4389 7.76567 12.4621C7.64783 12.4971 7.60909 12.4816 7.60909 12.4816L7.62846 12.5204C7.62846 12.5204 7.47486 12.5177 7.42366 12.5229C7.4327 12.5255 7.43014 12.5294 7.43014 12.5294C7.42115 12.5309 7.41249 12.534 7.40454 12.5385C7.37991 12.5544 7.3528 12.5662 7.32433 12.5734C7.3088 12.5759 7.29583 12.5759 7.27637 12.5799C7.28286 12.5954 7.33338 12.6823 7.35667 12.7335C7.3373 12.7464 7.04597 12.9665 7.04597 12.9665C7.05501 12.9807 7.06239 12.9959 7.06799 13.0118C7.07703 13.0402 7.08096 13.0817 7.09001 13.1011C7.11194 13.1399 7.12491 13.1464 7.12491 13.1464C7.12491 13.1464 7.09001 13.1529 7.02908 13.1684C6.97737 13.1814 6.91388 13.2033 6.82428 13.2163C6.79679 13.2199 6.76913 13.222 6.74142 13.2228C6.75439 13.2513 6.81131 13.36 6.70643 13.4855C6.60156 13.611 6.56922 13.6293 6.53687 13.7095C6.5206 13.6972 6.50326 13.6863 6.48508 13.6771C6.45018 13.6615 6.40222 13.6383 6.38541 13.6072C6.37561 13.6487 6.36263 13.6894 6.34658 13.7289C6.31424 13.8156 6.26637 13.9011 6.25732 13.9658C6.22234 13.9269 6.15765 13.8506 6.06831 13.8661C5.97897 13.8816 5.9078 14.0033 5.89227 14.0383C5.89227 14.0163 5.87674 13.9995 5.8729 14.0253C5.87025 14.0538 5.8211 14.3515 5.54667 14.5923C5.54411 14.5314 5.54411 14.3968 5.53762 14.3528C5.51202 14.3784 5.4807 14.4162 5.29425 14.4965C5.11172 14.5767 5.14065 14.657 5.14065 14.657C5.14065 14.657 5.12512 14.529 5.22351 14.3942C5.32318 14.2596 5.38402 14.1962 5.38402 14.1858C5.38241 14.1753 5.37792 14.1655 5.37105 14.1573C5.35808 14.1444 5.33222 14.1288 5.33222 14.1185C5.34775 14.1121 5.50178 14.0383 5.49274 13.8855C5.48369 13.7483 5.42549 13.6771 5.38402 13.6266C5.37762 13.6202 5.44495 13.5723 5.43582 13.5568C5.42933 13.5477 5.34656 13.4868 5.33615 13.4544C5.3386 13.435 5.34294 13.4159 5.34912 13.3974C5.35817 13.3689 5.36465 13.3495 5.36209 13.3301C5.35561 13.2978 5.32062 13.2084 5.31029 13.1994C5.31934 13.2019 5.38402 13.1994 5.38402 13.1994C5.38402 13.1994 5.33231 13.1165 5.32318 13.0777C5.31405 13.0389 5.29468 12.9366 5.28435 12.9172C5.30637 12.9197 5.36073 12.9236 5.36073 12.9172C5.36337 12.8977 5.31285 12.8654 5.33512 12.8404C5.35066 12.8429 5.38044 12.8559 5.40885 12.8922C5.39332 12.8507 5.36747 12.7705 5.31302 12.7382C5.33862 12.7291 5.42566 12.7057 5.50204 12.751C5.57841 12.7964 5.60444 12.8598 5.60444 12.8598C5.60444 12.8598 5.64975 12.8947 5.71972 12.9465C5.79994 13.0099 5.90217 13.1001 6.06532 13.164C6.10031 13.1834 6.18957 13.1834 6.25434 13.1705C6.28254 13.1637 6.30957 13.1528 6.33455 13.1381C6.34357 13.1328 6.35312 13.1285 6.36305 13.1251C6.34914 13.0972 6.33313 13.0704 6.31518 13.0448C6.33719 13.0448 6.36305 13.0475 6.36305 13.0475C6.36305 13.0475 6.37858 13.0125 6.30869 12.9451C6.32422 12.9296 6.34368 12.9195 6.34368 12.8933C6.32166 12.8907 6.28284 12.8584 6.27379 12.8454C6.28668 12.8364 6.30613 12.8066 6.32815 12.7975C6.30869 12.782 6.26082 12.7172 6.23881 12.7108C6.25984 12.703 6.28019 12.6935 6.29965 12.6823C6.29965 12.6823 6.19093 12.6538 6.15595 12.6306C6.12096 12.605 6.06925 12.5607 6.03819 12.5477C6.00576 12.5347 5.94884 12.5283 5.92555 12.5024C5.94748 12.5089 5.98246 12.5024 6.00841 12.5024C6.02778 12.5024 6.03691 12.5049 6.04331 12.5049C6.04075 12.4959 6.04075 12.4764 6.09126 12.47C6.11556 12.4664 6.13914 12.4589 6.16115 12.448C6.16115 12.448 6.11319 12.4455 6.05875 12.3937C6.00431 12.3419 5.95908 12.3005 5.92802 12.294C5.89568 12.2875 5.83484 12.316 5.79729 12.3134C5.74549 12.307 5.72348 12.281 5.72348 12.281C5.72348 12.281 5.55136 12.2966 5.16949 12.0636C4.83934 11.8616 4.69564 11.683 4.69564 11.683C4.66474 11.6718 4.63487 11.6579 4.60638 11.6415C4.48213 11.5769 4.30993 11.4422 4.31514 11.2661L4.31445 11.2674Z" fill="#C2A44D"/>
<path fill-rule="evenodd" clip-rule="evenodd" d="M9.07675 3.49765C9.1067 3.50738 9.13331 3.52533 9.15355 3.54945C9.21439 3.61933 9.25322 3.75135 9.11472 3.89249C9.16908 3.91186 9.19152 3.91809 9.23897 3.91186C9.1911 3.96886 9.08238 4.09055 9.07589 4.1967C9.06941 4.2834 9.12377 4.30934 9.12377 4.30934C9.12377 4.30934 9.04091 4.40508 9.03707 4.56534C9.0762 4.52121 9.11902 4.4805 9.16507 4.44365C9.2609 4.36728 9.39291 4.28058 9.48226 4.22623C9.48105 4.24901 9.48411 4.27182 9.4913 4.29347C9.4913 4.29347 9.65822 4.15625 9.79851 4.21718C9.86191 4.24568 9.83341 4.33494 9.83341 4.33494C9.83341 4.33494 9.9202 4.3026 9.98104 4.36344C10.0419 4.42428 10.1279 4.58121 10.172 4.64205C10.1914 4.67056 10.2419 4.72491 10.2936 4.80905C10.3643 4.92685 10.4233 5.05126 10.4698 5.18051C10.4723 5.11318 10.4891 5.00839 10.6808 5.07435C10.8724 5.14168 11.0898 5.28282 11.2723 5.56075C11.4549 5.83868 11.5001 6.15245 11.592 6.27192C11.6852 6.38712 11.781 6.57869 11.7875 6.65899C11.794 6.73929 11.759 6.99811 11.9506 7.69844C12.0049 7.48101 12.0878 6.99811 12.0878 6.99811L12.1331 6.57221L12.1849 5.25441L10.8088 4.1112L9.73306 3.33057L9.03271 3.39789L9.07666 3.49756L9.07675 3.49765Z" fill="#CAA13E"/>
<path fill-rule="evenodd" clip-rule="evenodd" d="M11.6334 5.45882C11.6334 5.45882 11.6139 5.33082 11.2903 5.11322C10.9667 4.89835 10.7142 4.89835 10.4813 4.71583C10.3026 4.57212 10.1162 4.24197 9.99488 4.13325C9.87704 4.02582 9.85767 3.71512 9.85767 3.71512L10.2551 3.38232L10.8461 2.52805L11.3457 1.97791L11.5852 2.31071L11.918 2.70162L12.103 3.48609L12.1704 4.63433L11.6328 5.45891L11.6334 5.45882Z" fill="#B59544"/>
<path fill-rule="evenodd" clip-rule="evenodd" d="M12.0336 6.83518C12.0434 6.66105 12.0219 6.48657 11.9701 6.32002C11.8848 6.05464 11.6983 5.58342 11.6117 5.40696C11.5767 5.21146 11.6027 5.19593 11.6402 5.17391C11.6778 5.15189 11.8189 5.07151 11.8962 4.78948C11.9735 4.50746 12.2134 4.49824 12.2134 4.49824L12.361 4.38953L12.585 4.95L12.7804 5.45619L12.8412 5.84326L12.8865 6.17333L12.7804 6.8711L12.2562 7.34488L12.0335 6.83518H12.0336Z" fill="#C89D3A"/>
<path fill-rule="evenodd" clip-rule="evenodd" d="M4.71826 14.6124V14.598C4.72915 14.5912 4.73877 14.5826 4.74668 14.5724C4.75572 14.5595 4.76229 14.5439 4.76869 14.5401C4.78166 14.5336 4.84251 14.5145 4.87485 14.5206C4.90719 14.5268 4.99269 14.562 5.03801 14.5595C5.13119 14.5569 5.2399 14.4857 5.41211 14.5181C5.67101 14.566 5.73185 14.742 5.88204 14.8417C5.98444 14.9117 6.09042 14.8805 6.10595 14.8805H6.14085C6.14734 14.8805 6.19521 14.8261 6.22115 14.8288C6.27295 14.8314 6.27807 14.8741 6.31041 14.8767C6.38678 14.8857 6.53441 14.8378 6.60822 14.8573C6.63011 14.8642 6.65002 14.8762 6.66624 14.8924C6.68247 14.9086 6.69453 14.9285 6.70141 14.9504C6.71694 14.9983 6.70397 15.0591 6.66642 15.0941C6.58621 15.1678 6.50984 15.2378 6.4943 15.2989C6.51406 15.314 6.53303 15.33 6.55114 15.347C5.91064 15.1838 5.29439 14.9371 4.71826 14.6132V14.6124Z" fill="#CEB052"/>
<path fill-rule="evenodd" clip-rule="evenodd" d="M11.6116 12.026C11.6116 12.026 11.8135 11.7568 11.8835 11.6234C11.9533 11.4859 11.6621 9.74512 11.6621 9.74512L12.2472 7.82802L12.2316 7.20406C12.2316 7.20406 12.2601 6.62797 12.3275 6.37812C12.4078 6.52182 12.6576 6.6953 12.712 6.78721C12.7376 6.61108 12.8245 6.23962 12.8117 5.84351C12.8595 5.91723 12.9747 6.65904 12.9747 6.65904L13.0899 7.15866L13.2401 7.68944L13.4071 8.24999L13.5068 8.63706L13.5637 8.73025L13.6117 8.89332L13.657 9.06945L13.7877 9.48237L13.8645 9.82149L13.9254 10.4364C13.9386 10.4835 13.9482 10.5315 13.9539 10.5801C13.9565 10.6474 13.9448 10.6863 13.9448 10.6979C13.9448 10.7096 13.9669 10.8455 13.9578 10.9478C13.9448 11.0502 13.9448 11.1303 13.8645 11.2038C13.7842 11.2773 13.7338 11.7164 13.7338 11.7164L13.5901 11.6207C13.5901 11.6207 13.6186 11.4898 13.5513 11.3708C13.4839 11.2518 13.3532 11.2271 13.2794 11.2466C13.2057 11.2621 13.0581 11.2853 13.0102 11.3268C12.9648 11.3682 12.8536 11.4963 12.7512 11.5546C12.6232 11.6314 12.4147 11.6375 12.3034 11.6633C12.1908 11.6889 12.0665 11.7657 11.9357 11.8549C11.8331 11.9213 11.7248 11.9784 11.6121 12.0256L11.6116 12.026Z" fill="#CCA847"/>
<path fill-rule="evenodd" clip-rule="evenodd" d="M11.6116 14.8544C11.6116 14.8544 11.6201 14.86 11.6366 14.869C12.5563 14.4381 13.3803 13.8274 14.06 13.0727C14.0526 12.8108 14.043 12.5422 14.0324 12.4427C14.0105 12.2317 14.026 12.0168 14.0195 11.8926C14.013 11.7683 13.9431 11.2621 13.9108 11.1314C13.8758 11.0007 13.8084 10.9359 13.7982 10.9359C13.7891 10.9386 13.7347 11.1819 13.7347 11.2431C13.7347 11.3043 13.7217 11.4516 13.7217 11.4891C13.7126 11.4865 13.7088 11.4635 13.7088 11.4541C13.6958 11.4865 13.6803 11.5435 13.6738 11.55C13.6673 11.5565 13.6829 11.4956 13.6738 11.4826C13.6648 11.4697 13.6482 11.4762 13.6518 11.4438C13.6533 11.4246 13.6564 11.4056 13.6609 11.3869C13.6609 11.3869 13.622 11.4438 13.5936 11.5888C13.5651 11.7325 13.5651 11.7364 13.5548 11.7493C13.5457 11.7649 13.4939 11.8166 13.4913 11.8361C13.4887 11.871 13.5393 11.906 13.5431 11.9254C13.5457 11.9578 13.4978 12.1079 13.4822 12.1814C13.4667 12.2548 13.4732 12.3988 13.4566 12.4726C13.4437 12.5399 13.431 12.5788 13.3868 12.6072C13.4191 12.6137 13.4502 12.6227 13.4502 12.6227C13.4502 12.6227 13.4955 12.8143 13.3803 12.9774C13.3389 13.0343 13.3286 13.0603 13.2845 13.1121C13.1977 13.2078 13.1304 13.3169 13.1239 13.3878C13.1195 13.3669 13.1164 13.3457 13.1149 13.3243C13.1149 13.3243 12.9803 13.481 12.9233 13.5703C12.8496 13.6855 12.7473 13.679 12.7185 13.7075C12.6898 13.736 12.6835 13.7878 12.6929 13.8292C12.6673 13.8356 12.6192 13.8448 12.5868 13.9444C12.5712 13.9961 12.5324 14.0468 12.4716 14.0816C12.4107 14.1165 12.3369 14.127 12.2994 14.136C12.3317 14.145 12.3447 14.145 12.3602 14.1554C12.3408 14.1877 12.2515 14.2382 12.1518 14.303C12.0521 14.3638 12.0042 14.4531 11.9796 14.5114C11.954 14.5657 11.9162 14.6007 11.8554 14.6072C11.881 14.6227 11.9189 14.6589 11.9382 14.6706C11.9097 14.6771 11.8614 14.6771 11.7752 14.7509C11.6845 14.826 11.6535 14.848 11.612 14.8545L11.6116 14.8544Z" fill="#C39D3C"/>
<path fill-rule="evenodd" clip-rule="evenodd" d="M9.81024 15.4542C9.85981 15.4195 9.91349 15.391 9.97007 15.3695C10.172 15.2893 10.3856 15.2738 10.4697 15.2479C10.55 15.2223 10.6134 15.187 10.7131 15.1676C10.7104 15.1903 10.7082 15.2116 10.7058 15.2318C10.412 15.3242 10.1127 15.3984 9.80981 15.4542H9.81024Z" fill="#D2BA6B"/>
<path fill-rule="evenodd" clip-rule="evenodd" d="M13.5343 10.1436C13.5343 10.1436 13.4929 10.3675 13.4191 10.5087C13.3453 10.6498 13.2655 10.8452 13.2655 10.8452C13.266 10.8012 13.2712 10.7573 13.281 10.7144C13.1878 10.7688 12.9613 10.8996 12.897 10.9578C12.8362 11.0121 12.7338 11.108 12.708 11.1533C12.7688 10.9747 12.8322 10.8142 12.8426 10.7404C12.7495 10.8077 12.3144 11.1663 12.088 11.4031L11.3824 11.974C11.301 12.0179 11.2172 12.0572 11.1313 12.0916C11.0097 12.1433 10.866 12.1873 10.7598 12.2288C10.7883 12.1524 10.8336 12.085 10.897 12.0203C10.9644 11.9569 11.1663 11.7381 11.1973 11.6363C11.2258 11.5302 11.2323 11.4668 11.1948 11.3774C11.1598 11.3865 11.0796 11.3904 11.0252 11.4059C10.9709 11.4215 10.9126 11.4797 10.9126 11.4797C10.9126 11.4797 10.954 11.2428 11.0433 11.0189C10.976 11.0214 10.8608 11.0408 10.8608 11.0408C10.8608 11.0408 11.0213 10.7716 11.296 10.5839C11.2119 10.6018 11.1295 10.6274 11.05 10.6602C10.8895 10.7276 10.7135 10.8272 10.5828 10.8816C10.6565 10.7792 11.1743 10.0402 11.4824 9.35149C11.7896 8.66413 11.9044 8.48809 11.9717 8.1192C12.0066 7.93668 11.9973 7.66694 12.0066 7.42536C12.0157 7.18584 12.0455 6.97097 12.0261 6.82727C12.1063 6.92694 12.4067 7.20785 12.417 7.83573C12.426 8.46352 12.1297 9.31147 11.8151 9.76834C11.8919 9.79035 12.0909 9.81629 12.2953 9.46114C12.4998 9.10599 12.4973 9.00683 12.5711 8.8592C12.5802 8.93302 12.5775 8.95887 12.5775 8.95887C12.5775 8.95887 12.8753 8.59775 13.0164 8.14335C13.0449 8.33885 13.129 8.51105 12.9969 8.86962C12.8792 9.1932 12.7251 9.27221 12.7251 9.27221C12.7251 9.27221 12.8015 9.25924 12.9141 9.19192C12.9335 9.23979 12.9297 9.29431 12.962 9.3136C12.9944 9.33288 13.0384 9.3654 13.0449 9.39646C13.0798 9.34466 13.1341 9.27861 13.151 9.22946C13.1381 9.33186 13.129 9.7796 13.1766 10.0074C13.2764 9.99839 13.3786 9.99191 13.4485 9.81194C13.4006 9.98807 13.4006 10.0941 13.433 10.2443C13.4861 10.2081 13.5339 10.1434 13.5339 10.1434L13.5343 10.1436Z" fill="#C0993A"/>
<path fill-rule="evenodd" clip-rule="evenodd" d="M10.1708 3.00845C10.1708 3.00845 10.0711 3.04984 9.90152 3.04984C9.75397 3.04984 9.79536 2.99292 9.56496 2.99292C9.2103 2.99292 7.9714 3.19772 7.75388 3.19482C7.61274 3.19226 8.23023 3.25566 8.23023 3.25566L9.80833 3.27768L10.1254 3.25208L10.2433 3.01229L10.1708 3.00845Z" fill="#A88F33"/>
<path fill-rule="evenodd" clip-rule="evenodd" d="M6.07872 6.09324C6.07872 6.09324 5.87674 6.24727 5.79132 6.36511C5.7059 6.48296 5.66059 6.56053 5.56348 6.65636C5.58627 6.65722 5.60905 6.65416 5.6308 6.64731C5.6308 6.64731 5.6308 6.67291 5.61527 6.67965C5.62869 6.67815 5.64228 6.67967 5.65504 6.6841C5.6678 6.68853 5.6794 6.69576 5.689 6.70525C5.6605 6.72078 5.58285 6.79852 5.64369 6.89042C5.689 6.96031 5.78483 6.96671 5.78483 6.96671C5.78483 6.96671 5.76282 7.0302 5.85472 7.02372C6.05278 7.01467 6.27413 6.92789 6.37636 6.9499C6.47876 6.9755 6.53696 6.98489 6.60941 7.1105C6.68621 7.23474 6.75311 7.2542 6.75311 7.2542C6.75311 7.2542 6.79842 7.13892 6.7881 6.9668C6.82525 6.87402 6.84584 6.77545 6.84894 6.67556L6.78161 6.17977L6.48781 5.80823L6.10722 6.01926L6.07872 6.09298V6.09324Z" fill="#E3C571"/>
<path fill-rule="evenodd" clip-rule="evenodd" d="M6.43994 6.0194C6.43994 6.0194 6.46844 6.08673 6.58757 6.09313C6.5746 6.12163 6.5746 6.12556 6.57852 6.14749C6.58108 6.1695 6.58492 6.20185 6.58492 6.20185C6.59804 6.1955 6.60989 6.18683 6.61991 6.17625C6.62639 6.20475 6.61342 6.24997 6.61991 6.2824C6.62391 6.30212 6.63042 6.32125 6.63928 6.33932C6.64117 6.33489 6.64333 6.33059 6.64577 6.32643C6.64833 6.31995 6.67137 6.39632 6.73511 6.45443C6.73505 6.4455 6.73725 6.43669 6.74151 6.42883C6.74249 6.44506 6.74785 6.46073 6.75704 6.47414C6.75227 6.47187 6.74791 6.46881 6.74415 6.4651C6.74415 6.4651 6.75055 6.6699 6.78554 6.7758C6.79139 6.76896 6.79659 6.76159 6.80107 6.75378C6.80107 6.74738 6.79851 6.81078 6.79203 6.85618C6.78298 6.90149 6.78947 6.9649 6.78947 6.9649C6.81281 6.94652 6.83845 6.93129 6.86575 6.91958C6.90458 6.90397 6.96815 6.8561 7.0069 6.74994C7.02937 6.68982 7.0467 6.62791 7.05869 6.56485C7.07121 6.58895 7.07985 6.61487 7.08429 6.64165C7.08694 6.674 7.14778 6.65718 7.14778 6.65718L7.16075 6.51604L7.23755 6.1963L7.30744 5.99824L7.64399 5.47404L8.25208 5.00573L8.78285 5.12741L9.23068 4.51899L8.45918 4.05554L7.72907 4.13192L7.06646 5.04968L6.53577 5.8821L6.43994 6.01932V6.0194Z" fill="#D8B65B"/>
<path fill-rule="evenodd" clip-rule="evenodd" d="M10.2639 4.69131C10.2639 4.69131 10.2186 4.70036 10.0879 4.76811C9.95715 4.83587 9.86653 4.85737 9.81602 4.95704C9.7655 5.05672 9.76166 5.13573 9.76166 5.13573C9.76166 5.13573 9.851 5.09691 9.9028 5.08394C9.95715 5.07105 10.018 5.07489 10.0115 5.09691C10.0053 5.112 9.99664 5.12598 9.98591 5.13829C9.98591 5.13829 10.0883 5.13573 10.0856 5.18625C10.0828 5.23677 10.0662 5.29241 10.0468 5.31698C10.0274 5.34258 9.94717 5.38047 9.93813 5.41026C9.91611 5.4711 9.94717 5.47366 9.93548 5.52281C9.92644 5.57077 9.88377 5.66395 9.74391 5.82703C9.60021 5.99019 9.53911 6.10539 9.53911 6.10539C9.53911 6.10539 9.46922 5.97466 9.43296 5.86201C9.40736 5.8749 9.26989 5.95127 9.26989 5.95127L8.95143 4.84193L8.95783 4.76811C8.95783 4.76811 8.98633 4.73321 8.99281 4.66844C8.94494 4.65291 8.93846 4.63994 8.87497 4.57918C8.81148 4.51843 8.75977 4.44453 8.6537 4.39401C8.63817 4.36551 8.61871 4.32677 8.54106 4.31115C8.46341 4.29553 8.41682 4.28273 8.41682 4.28273C8.41682 4.28273 8.4582 4.26712 8.47766 4.23478C8.4297 4.24126 8.39096 4.25679 8.28609 4.25423C8.17993 4.25159 8.16824 4.24775 8.11005 4.25679C8.05185 4.26584 7.98205 4.29178 7.95602 4.20243C7.92752 4.18042 7.86668 4.19987 7.81488 4.27616C7.76309 4.35245 7.745 4.41338 7.64533 4.44316C7.63832 4.4871 7.62294 4.52928 7.60002 4.56741C7.57151 4.61537 7.5262 4.66324 7.46536 4.73441C7.36953 4.84705 7.38506 5.03214 7.23232 5.17328C7.07829 5.31434 7.25792 4.78228 7.25792 4.78228L7.50385 4.19347L8.20417 3.50867L9.29156 3.43494L9.39771 3.99814L9.92848 4.18067L10.2638 4.692L10.2639 4.69131Z" fill="#D3AE4D"/>
<path fill-rule="evenodd" clip-rule="evenodd" d="M10.436 4.81543L9.97908 4.15658L9.65935 3.91057C9.65935 3.91057 9.43152 3.49125 9.41599 3.47828C9.40302 3.46923 9.18816 3.44593 9.05094 3.43689L9.07654 3.50029C9.10649 3.51002 9.1331 3.52797 9.15334 3.55209C9.21418 3.62197 9.25301 3.75398 9.11452 3.89512C9.16887 3.91449 9.19131 3.92072 9.23876 3.91449C9.19089 3.97149 9.08218 4.09318 9.07569 4.19933C9.06921 4.28603 9.12356 4.31188 9.12356 4.31188C9.12356 4.31188 9.04071 4.40771 9.03687 4.56788C9.07599 4.52375 9.11881 4.48304 9.16486 4.44619C9.26069 4.3694 9.39269 4.28304 9.48203 4.22868C9.48081 4.25149 9.48388 4.27433 9.49108 4.29601C9.49108 4.29601 9.65798 4.1588 9.79826 4.21964C9.86166 4.24814 9.83317 4.33748 9.83317 4.33748C9.83317 4.33748 9.91995 4.30514 9.98079 4.36598C10.0416 4.42682 10.1283 4.58341 10.1724 4.64434C10.1917 4.67284 10.2422 4.72719 10.2939 4.81124C10.3646 4.92906 10.4236 5.0535 10.4701 5.18278C10.4726 5.13098 10.483 5.05854 10.5725 5.05854L10.4365 4.81517L10.436 4.81543Z" fill="#CAA13E"/>
<path fill-rule="evenodd" clip-rule="evenodd" d="M3.58566 6.68737C3.58566 6.68737 3.55332 6.60708 3.58566 6.45049C3.618 6.2939 3.66852 6.22009 3.68533 5.98969C3.70214 5.75929 3.85233 5.47189 3.85233 5.47189L4.26781 5.28296L4.5617 5.36317L4.6484 5.75673L4.27686 5.96153C4.27686 5.96153 4.25749 6.04823 4.15261 6.11812C4.04774 6.188 3.90276 6.24236 3.86786 6.31361C3.84699 6.35725 3.83177 6.40336 3.82255 6.45083C3.82255 6.45083 3.71639 6.42882 3.65299 6.4987C3.58566 6.56996 3.58822 6.63336 3.58566 6.68772V6.68737Z" fill="#F4EFC8"/>
<path fill-rule="evenodd" clip-rule="evenodd" d="M4.42433 6.58251C4.42433 6.58251 4.38935 6.60452 4.36349 6.65931C4.33789 6.61792 4.27671 6.37191 4.27415 6.15055C4.27159 5.9292 4.25836 5.87433 4.30956 5.79805C4.36076 5.72176 4.56155 5.64138 4.53305 5.50399C4.50455 5.37326 4.38542 5.31891 4.23916 5.35645C4.13676 5.38205 4.06056 5.59982 3.9544 5.70853C3.8741 5.79139 3.77836 5.77842 3.7525 5.82373C3.71752 5.88457 3.74986 5.94542 3.73953 5.98424C3.73689 5.99721 3.70455 6.0671 3.64626 6.15124C3.5285 6.32079 3.32916 6.56032 3.30322 6.77519C3.31227 6.6535 3.30587 6.65094 3.33821 6.51629L3.31875 6.48395L3.44675 6.06454L3.52961 5.71894L3.71479 5.14022L4.04093 4.5487L4.35811 4.19397L4.68818 4.21599L4.72701 4.71177L4.91602 5.64257L5.31342 6.13187L4.67649 6.56049L4.42408 6.58251H4.42433Z" fill="#EBCC73"/>
<path fill-rule="evenodd" clip-rule="evenodd" d="M4.62243 6.75853C4.62243 6.75853 4.56807 6.7715 4.54861 6.76117C4.52916 6.75085 4.50987 6.73916 4.51627 6.72619C4.52267 6.71321 4.55766 6.69128 4.55766 6.68087C4.55838 6.67146 4.5554 6.66215 4.54936 6.6549C4.54332 6.64765 4.5347 6.64304 4.52532 6.64204C4.49554 6.6382 4.48649 6.65757 4.48649 6.65757C4.48649 6.65757 4.45799 6.63564 4.43478 6.63197C4.44851 6.63029 4.46233 6.62941 4.47617 6.62933C4.44039 6.61312 4.40245 6.60223 4.36353 6.59699C4.39587 6.57761 4.45935 6.52061 4.50074 6.52061C4.54213 6.52061 4.56807 6.51421 4.56158 6.49219C4.5551 6.47018 4.52276 6.43783 4.48786 6.42486C4.50074 6.40933 4.50987 6.38603 4.47881 6.32246C4.44638 6.25905 4.45935 6.2163 4.46977 6.20085C4.47881 6.1814 4.51115 6.14649 4.52668 6.12448C4.54221 6.10246 4.55518 6.07268 4.58104 6.05715C4.59401 6.0481 4.6354 6.03155 4.67687 6.01576C4.72218 6.00023 4.75973 5.98077 4.78558 6.00023C4.81409 6.0196 4.80111 6.04554 4.80111 6.04554C4.80111 6.04554 4.89046 6.01311 4.97067 6.05459C5.05097 6.09333 5.24647 6.11799 5.24647 6.11799L5.31653 6.25914L4.85308 6.65655L4.66151 6.75238L4.62268 6.75878L4.62243 6.75853Z" fill="#E5C66B"/>
<path fill-rule="evenodd" clip-rule="evenodd" d="M5.26571 6.10874C5.26571 6.10874 5.12201 6.20457 5.08967 6.23947C5.10904 6.24212 5.14138 6.25509 5.12841 6.27446C5.11288 6.29383 5.01969 6.36116 4.9679 6.42464C4.91354 6.48805 4.86174 6.56835 4.84365 6.60717C4.82428 6.64207 4.67665 6.74439 4.62622 6.75727C4.73238 6.75727 4.94596 6.62654 5.02618 6.62654C5.02362 6.66537 5.04819 6.7094 5.09351 6.71324C5.13882 6.71708 5.26955 6.74174 5.44559 6.63303C5.62163 6.52687 5.56344 6.44785 5.63717 6.39614C5.77831 6.30287 5.83522 6.22001 5.91288 6.1683C5.99053 6.11659 6.03072 6.10481 6.03072 6.10481C6.03072 6.10481 6.03328 6.06599 6.05632 6.06991C6.06263 6.07064 6.06862 6.07307 6.07364 6.07695C6.07866 6.08083 6.08253 6.08601 6.08482 6.09193C6.08482 6.09193 6.21948 5.9961 6.39202 5.97024C6.388 5.96844 6.38478 5.96522 6.38298 5.9612C6.38298 5.9612 6.39586 5.95471 6.39851 5.94823C6.39851 5.94823 6.40755 5.93526 6.41404 5.94174C6.42052 5.94823 6.42957 5.9961 6.44254 6.01556C6.47104 6.00259 6.5254 5.8809 6.5254 5.8809L6.65622 5.5068V5.16504L6.55382 5.18449L5.78582 5.51064L5.31972 5.99354L5.26537 6.10874H5.26571Z" fill="#E6BD62"/>
<path fill-rule="evenodd" clip-rule="evenodd" d="M7.47693 4.43241C7.51848 4.42233 7.5583 4.40617 7.59512 4.38445C7.57959 4.42593 7.57959 4.47124 7.51226 4.56963C7.44493 4.66802 7.44237 4.68227 7.38802 4.7845C7.33366 4.89066 7.32717 5.04341 7.27538 5.11065C7.29859 5.09937 7.3235 5.09196 7.3491 5.08872C7.3491 5.08872 7.29739 5.13403 7.27538 5.18191C7.25336 5.22978 7.21453 5.32945 7.11879 5.39038C7.02305 5.45131 6.90127 5.49005 6.77054 5.63375C6.63973 5.77481 6.50516 5.9535 6.43774 6.01776C6.47273 5.95692 6.5206 5.83523 6.53357 5.75501C6.54654 5.6748 6.53093 5.57888 6.55294 5.47281C6.57496 5.36674 6.57496 5.29028 6.68094 5.10511C6.78693 4.91993 6.96835 4.27659 6.96835 4.27659L7.35926 4.15234L7.4771 4.43199L7.47693 4.43241Z" fill="#B6933F"/>
<path fill-rule="evenodd" clip-rule="evenodd" d="M7.19472 4.19547C7.19472 4.19547 7.07696 4.36503 7.04462 4.51521C7.01228 4.6654 7.04198 4.65243 7.02261 4.72624C7.01102 4.77125 7.01102 4.81845 7.02261 4.86346C7.06339 4.79776 7.11923 4.74271 7.1855 4.70286C7.29686 4.63562 7.38749 4.58766 7.4415 4.53074C7.49586 4.4699 7.54117 4.37023 7.65893 4.29386C7.61106 4.28737 7.54373 4.26536 7.53093 4.26826C7.57889 4.2139 7.7225 4.13104 7.86748 4.03137C8.01118 3.92897 8.00214 3.88767 8.23518 3.78544C8.15881 3.79841 8.12254 3.77896 8.05905 3.78544C8.08465 3.73109 8.17425 3.70514 8.26385 3.61589C8.35345 3.52663 8.20693 3.39453 8.20693 3.39453L7.52427 3.80746L7.19421 4.19581L7.19472 4.19547Z" fill="#C49937"/>
<path fill-rule="evenodd" clip-rule="evenodd" d="M5.34229 3.88733L5.35782 3.76309L5.55331 3.44983L5.75786 2.89969V2.14756L5.74233 1.71261L5.77467 1.42777L5.79924 1.33723L5.82519 1.30225L5.9921 1.38894L6.22258 1.7022L6.2446 2.30679L6.0206 3.26082L5.38111 3.95859L5.34229 3.88733Z" fill="#DFC068"/>
<path fill-rule="evenodd" clip-rule="evenodd" d="M5.85095 1.26725C5.85095 1.26725 5.74855 1.26989 5.72671 1.69579C5.70486 2.12169 5.69428 2.3456 5.67875 2.55663C5.66322 2.76766 5.62704 2.89575 5.60886 3.02008C5.59069 3.14441 5.58036 3.31388 5.52216 3.41748C5.49656 3.46535 5.44187 3.61553 5.3137 3.72817C5.17 3.85242 4.9553 3.9392 4.92279 3.94569C4.86579 3.95857 4.57711 3.98708 4.45935 4.05184C4.41796 4.07386 4.34671 4.09972 4.26778 4.17353C4.11111 4.31459 3.90273 4.567 3.75254 4.87121C3.52215 5.32561 3.29175 6.60843 3.29175 6.60843L3.34354 6.52173C3.34354 6.52173 3.35003 6.40653 3.46523 6.20455C3.57787 6.00265 3.54553 5.77609 3.70211 5.38902C3.76295 5.24148 3.83933 5.0499 3.93251 4.88675C4.08013 4.62136 4.25873 4.39352 4.4387 4.26927C4.7325 4.06737 5.05616 4.02334 5.05616 4.02334L5.40441 3.79294C5.40441 3.79294 5.46525 3.67518 5.54555 3.54053C5.6581 3.3516 5.80154 3.14057 5.83286 2.8338C5.88082 2.3794 5.76553 2.08167 5.77202 1.81244C5.7785 1.54321 5.78106 1.34516 5.8355 1.2972C5.88995 1.24924 5.85104 1.26742 5.85104 1.26742L5.85095 1.26725Z" fill="#A88F33"/>
<path fill-rule="evenodd" clip-rule="evenodd" d="M5.851 3.29968C5.851 3.29968 6.00461 2.92165 6.07492 2.58638C6.08789 2.51905 6.11375 2.45181 6.12024 2.39745C6.15258 2.08026 6.16162 1.94953 6.12024 1.77605C6.08789 1.64805 5.96364 1.53268 5.89887 1.44325C5.83547 1.34998 5.80569 1.31525 5.81866 1.29562C5.83163 1.276 5.88206 1.24391 5.93122 1.24775C5.98347 1.24927 6.03486 1.2614 6.08228 1.28341C6.12969 1.30541 6.17213 1.33683 6.20702 1.37575C6.3067 1.49095 6.38563 1.88195 6.38563 1.88195L6.46866 2.39787L6.6797 3.04769L5.85117 3.30019L5.851 3.29968Z" fill="#C99E3D"/>
<path fill-rule="evenodd" clip-rule="evenodd" d="M7.29427 2.90624C7.29427 2.90624 7.26576 2.91912 7.21405 2.90624C7.21626 2.92737 7.21259 2.9487 7.20345 2.96788C7.19431 2.98706 7.18006 3.00335 7.16225 3.01495C7.1079 2.99294 6.59905 3.03697 6.59905 3.03697C6.59905 3.03697 6.36217 2.9955 6.28836 2.68224C6.23664 2.47377 6.32718 2.18645 6.2974 1.99744C6.25209 1.71908 6.18869 1.66464 6.1822 1.57802C6.17572 1.49141 6.16923 1.46931 6.16923 1.41495C6.14073 1.40847 6.12392 1.39942 6.0955 1.39942C6.08902 1.37382 6.1019 1.35146 6.07349 1.30615C6.08902 1.31264 6.19517 1.32561 6.31942 1.44337C6.42182 1.5392 6.42182 1.5741 6.43726 1.59356C6.45663 1.61293 6.6133 1.74716 6.68063 1.88096C6.74796 2.01476 6.87869 2.44143 6.90847 2.51132C6.91752 2.53982 6.93697 2.56832 6.98527 2.633C7.06037 2.72627 7.17036 2.88047 7.29461 2.90607L7.29427 2.90624Z" fill="#B58634"/>
<path fill-rule="evenodd" clip-rule="evenodd" d="M6.45557 1.59998C6.53399 1.72665 6.60444 1.85809 6.66651 1.99353C6.74288 2.16565 6.7882 2.30679 6.88403 2.42199C6.83223 2.27189 6.74032 1.97672 6.68597 1.87185C6.62512 1.76091 6.50088 1.64145 6.45557 1.60006V1.59998Z" fill="#A88F33"/>
<path fill-rule="evenodd" clip-rule="evenodd" d="M5.57517 3.72823C5.57517 3.72823 5.44444 3.76058 5.20108 3.88875C5.12078 3.93013 5.0445 3.96503 4.97069 3.99746C4.77895 4.08416 4.5733 4.16429 4.41015 4.20849C4.42312 4.22402 4.42952 4.23042 4.42952 4.23042C4.42952 4.23042 4.42952 4.29391 4.46451 4.33009C4.44514 4.34955 4.18616 4.52559 4.26261 5.11456C4.31432 5.09519 4.37516 5.06925 4.38421 5.06925C4.39982 5.07189 4.40366 5.11456 4.42303 5.11456C4.4424 5.11456 4.50589 5.08896 4.57322 5.00192C4.57066 5.03691 4.53183 5.38899 4.74021 5.62588C4.77903 5.58057 4.87742 5.43038 4.87742 5.43038L4.87998 5.38251C4.87998 5.38251 4.88903 5.21551 4.94347 5.06276C4.99791 4.91002 5.10397 4.79738 5.10397 4.79738L5.65785 4.00642L5.575 3.72815L5.57517 3.72823Z" fill="#E6C367"/>
<path fill-rule="evenodd" clip-rule="evenodd" d="M5.05733 4.88965C5.03197 4.90757 5.00403 4.92152 4.97447 4.93103C4.96543 4.89869 4.95246 4.78733 5.02883 4.67861C5.11818 4.5478 5.31359 4.37824 5.36795 4.24341C5.40293 4.15662 5.3874 3.93919 5.6981 3.66083C6.0088 3.38247 6.1304 3.28672 6.1304 3.28672L6.63267 3.0343L7.25014 3.27768L6.94337 4.48004L6.70521 5.04325L5.758 4.86464L5.05725 4.88965H5.05733Z" fill="#DCBA5A"/>
<path fill-rule="evenodd" clip-rule="evenodd" d="M5.41895 4.56322L5.53679 4.41567V4.3108C5.53679 4.3108 5.66752 4.27581 5.80858 4.1321C5.94964 3.9884 6.14514 3.71268 6.31735 3.72949C6.48955 3.74895 6.50636 4.1036 6.51285 4.20336C6.51933 4.30312 6.54135 4.52951 6.57625 4.65128C6.61508 4.77297 6.15683 5.23378 6.15683 5.23378L5.84562 5.47067L5.41895 4.56322Z" fill="#E9CE77"/>
<path fill-rule="evenodd" clip-rule="evenodd" d="M5.78369 5.79161C5.78369 5.79161 5.87952 5.64142 5.80929 5.60908C5.85068 5.51589 5.92705 5.4175 5.92705 5.4175C5.92705 5.4175 5.9814 5.28293 6.15744 5.11722C6.33347 4.9515 6.44227 4.84142 6.47077 4.73014C6.48834 4.65762 6.49789 4.58339 6.49927 4.50879C6.5183 4.52434 6.53866 4.53819 6.56011 4.55018C6.58861 4.56315 6.72317 4.67442 6.7038 4.89842C6.68443 5.12242 6.60141 5.21561 6.60141 5.21561C6.60141 5.21561 6.5212 5.29582 6.46428 5.33729C6.40336 5.37868 6.38143 5.42655 6.27912 5.43047C6.28963 5.42211 6.30145 5.41554 6.3141 5.41102C6.3141 5.41102 6.20795 5.39813 6.15095 5.44985C6.09395 5.50156 5.97278 5.66087 5.91194 5.70883C5.8511 5.74766 5.78395 5.79169 5.78395 5.79169L5.78369 5.79161Z" fill="#CDAE50"/>
<path fill-rule="evenodd" clip-rule="evenodd" d="M10.0879 3.27376C9.93492 3.21802 9.7742 3.18658 9.61153 3.18058C9.33966 3.17153 8.94226 3.18706 8.55263 3.18962C8.13322 3.19218 7.75263 3.04592 7.2245 3.02006C7.1378 2.96827 6.9173 2.7417 6.229 3.22197C6.27039 3.21941 6.72872 3.11581 6.88786 3.31524C7.04837 3.5133 7.00306 3.84986 6.98113 3.93007C6.93966 4.10876 6.805 4.36895 6.75073 4.55148C6.69646 4.73401 6.70926 4.82992 6.67043 4.95792C6.63161 5.08593 6.54619 5.1495 6.59662 5.29704C6.66395 5.25566 6.69902 5.25566 6.81149 5.00324C6.92396 4.75082 6.90083 4.57085 7.08729 4.35725C7.26981 4.14238 7.57369 3.84849 7.68923 3.77468C7.80477 3.70086 8.72219 3.22453 9.68279 3.67893C9.91447 3.65436 10.0879 3.27368 10.0879 3.27368L10.0879 3.27376Z" fill="#D2A83E"/>
<path fill-rule="evenodd" clip-rule="evenodd" d="M6.61593 3.09762C6.61498 3.08789 6.61283 3.07832 6.60953 3.06911C6.60055 3.05018 6.58875 3.03272 6.57455 3.01732C6.57455 3.01732 6.3467 2.97593 6.23149 2.98881C6.0295 3.01083 5.84697 3.26069 5.76154 3.38886C5.67612 3.51704 5.56996 3.71501 5.45476 3.81733C5.45602 3.80736 5.45372 3.79727 5.44827 3.78883C5.44827 3.78883 5.45476 3.79787 5.44187 3.81085C5.42899 3.82382 5.4289 3.83022 5.43539 3.83645L5.45484 3.85582C5.46124 3.85582 5.63994 3.77552 5.88332 3.54861C6.14223 3.31172 6.3403 3.1902 6.44389 3.14856C6.49914 3.12508 6.55689 3.10799 6.61602 3.09762H6.61593Z" fill="#C29637"/>
<path fill-rule="evenodd" clip-rule="evenodd" d="M11.0354 2.12439C11.0354 2.12439 10.9939 2.1761 10.9421 2.23311C10.8269 2.35479 10.6767 2.49192 10.5485 2.63307C10.4269 2.76772 10.2897 2.8726 10.1356 3.04864C9.9815 3.22469 9.80281 3.4201 9.75759 3.4771C9.7162 3.53411 9.68386 3.62729 9.68386 3.67517C9.66184 3.65963 9.63599 3.64282 9.63599 3.64282C9.64687 3.66315 9.65989 3.68226 9.67481 3.69983C9.70715 3.74514 9.75759 3.80223 9.78353 3.83704C9.81535 3.88137 9.8382 3.93149 9.85077 3.98459C9.8663 3.98715 9.96597 4.0066 10.0903 3.80206C10.2146 3.59751 10.3776 3.37359 10.3776 3.37359L10.6365 2.98908L10.7997 2.66293L11.0045 2.29787L11.0356 2.12439H11.0354Z" fill="#AC8132"/>
<path fill-rule="evenodd" clip-rule="evenodd" d="M11.301 1.86279C11.301 1.86279 11.1443 1.9908 11.0835 2.0676C11.0226 2.1444 10.8787 2.34597 10.8787 2.34597L10.9305 2.33948L11.1933 2.10651L11.2957 1.92398L11.3009 1.86313L11.301 1.86279Z" fill="#A88F33"/>
<path fill-rule="evenodd" clip-rule="evenodd" d="M11.2529 12.1502C11.2529 12.1502 11.2503 12.0441 11.3099 11.9807C11.3707 11.9172 11.5248 11.824 11.6749 11.4745C11.8251 11.1249 11.8419 11.046 11.8419 11.046C11.8419 11.046 11.5726 11.2764 11.4067 11.3308C11.4455 11.2505 11.4675 11.1935 11.4869 11.1521C11.4649 11.1327 11.3717 11.1107 11.3627 11.1004C11.4144 11.0486 11.4429 10.9217 11.5478 10.8375C11.6824 10.7351 11.9284 10.5592 12.1195 10.4023C12.3107 10.2455 12.6865 9.88069 12.7344 9.77454C12.7629 9.81592 12.7693 9.84178 12.7693 9.84178C12.7693 9.84178 12.5804 10.0878 12.482 10.2444C12.3952 10.379 12.4017 10.4554 12.4017 10.4554L12.5804 10.3786C12.5804 10.3786 12.6321 10.5702 12.3979 10.8615C12.5003 10.8227 12.5416 10.846 12.5998 10.8136C12.504 10.8745 12.3719 10.9573 12.2477 11.1851C12.126 11.4129 11.9603 11.6783 11.6807 11.844C11.4089 12.0187 11.2522 12.1494 11.2522 12.1494L11.2529 12.1502Z" fill="#A67A2E"/>
<path fill-rule="evenodd" clip-rule="evenodd" d="M10.5512 3.40843C10.5512 3.40843 10.445 3.62969 10.4295 3.80189C10.4269 3.84336 10.4165 3.8757 10.4165 3.92358C10.414 4.0776 10.4256 4.2498 10.3909 4.33001C10.378 4.29767 10.3715 4.27566 10.3585 4.26277C10.3391 4.31713 10.3042 4.48668 10.2757 4.55008C10.2628 4.5087 10.2343 4.365 10.2369 4.19544C10.2396 4.02589 10.2433 3.99346 10.2433 3.95856C10.2369 4.01027 10.2019 4.08025 10.189 4.12163C10.1696 4.08673 10.1476 4.04142 10.1216 4.00387C10.1061 4.02947 10.0867 4.06727 10.0699 4.08673C10.0673 4.0712 10.0609 4.02973 10.057 3.97153C10.0544 3.90421 10.0505 3.81751 10.0544 3.79933C10.0608 3.76443 10.1152 3.62722 10.2304 3.50161C10.3676 3.35142 10.5088 3.06283 10.5502 2.97349C10.5915 2.88415 10.7676 2.5127 10.7676 2.5127H10.9022L10.7067 2.95796C10.7067 2.95796 10.589 3.20133 10.5281 3.29075C10.4673 3.38018 10.3391 3.63643 10.2821 3.7361C10.3235 3.68174 10.3585 3.65324 10.4 3.60145C10.4401 3.56518 10.5514 3.4086 10.5514 3.4086L10.5512 3.40843Z" fill="#8C6228"/>
<path fill-rule="evenodd" clip-rule="evenodd" d="M11.3033 1.84595C11.2813 1.91364 11.2465 1.9765 11.2009 2.03112C11.1206 2.12695 10.9484 2.25504 10.8644 2.35726C10.7876 2.45693 10.634 2.72881 10.7038 3.05111C10.7294 2.98122 10.7776 2.84273 10.9057 2.68605C11.0339 2.52938 11.1711 2.3495 11.2385 2.20972C11.3058 2.06858 11.3148 1.95731 11.3148 1.95731L11.3404 1.92497L11.3249 1.85115L11.3029 1.84595H11.3033Z" fill="#CBA94C"/>
<path fill-rule="evenodd" clip-rule="evenodd" d="M13.9248 10.4323C13.9248 10.4323 13.873 10.2913 13.8574 10.1631C13.8419 10.0349 13.883 10.0095 13.8354 9.86281C13.8069 9.77346 13.7552 9.78601 13.7422 9.77346C13.7293 9.76092 13.7202 9.62592 13.7228 9.55211C13.7253 9.47829 13.7202 9.38255 13.7072 9.34108C13.6879 9.32555 13.6749 9.31258 13.6464 9.21683C13.6141 9.121 13.5985 9.07313 13.583 9.04471C13.5675 9.0163 13.5221 8.99036 13.5221 8.96186C13.5221 8.90485 13.5739 8.87516 13.5739 8.85946C13.5713 8.82711 13.5325 8.85306 13.5221 8.84393C13.5092 8.82839 13.5545 8.73521 13.5377 8.72224C13.5312 8.71584 13.4859 8.7702 13.4742 8.75467C13.4612 8.73905 13.4457 8.58502 13.4224 8.48279C13.4005 8.38313 13.3771 8.31068 13.3745 8.2809C13.372 8.25239 13.1958 7.75012 13.1532 7.62844C13.1188 7.52561 13.0898 7.42105 13.0665 7.31518C13.0535 7.25434 13.0445 7.13001 13.038 7.14298C13.0315 7.15595 13.0354 7.21935 13.025 7.21679C13.016 7.21414 12.9836 6.99287 12.9733 6.95789C12.9642 6.9229 12.9098 6.80429 12.8965 6.71844C12.8835 6.63166 12.8551 6.4051 12.8356 6.25107C12.8162 6.09704 12.8071 6.03364 12.8071 5.99507C12.8103 5.90073 12.8051 5.8063 12.7916 5.71287C12.766 5.54972 12.7148 5.35166 12.6699 5.23654C12.5832 5.01903 12.3527 4.4624 12.3115 4.3239C12.3115 4.28892 12.3568 4.30837 12.3568 4.30837C12.3568 4.30837 12.4694 4.59057 12.5523 4.808C12.6326 5.02551 12.7089 5.21709 12.7284 5.23654C12.7439 5.25591 12.8656 5.4695 12.92 5.81903C12.9743 6.16855 12.9937 6.49086 13.0261 6.70573C13.0416 6.80813 13.0546 6.91676 13.087 7.02547C13.1219 7.14332 13.1762 7.265 13.2475 7.45137C13.3083 7.60804 13.3536 7.73877 13.3782 7.85141C13.4067 7.99511 13.4067 8.10383 13.4235 8.17508C13.4391 8.23593 13.4623 8.35753 13.5168 8.53348C13.5712 8.70944 13.6514 8.93609 13.7057 9.07714C13.812 9.35934 13.8593 9.59494 13.8754 9.72055C13.8895 9.85001 13.9375 10.2979 13.9245 10.4325L13.9248 10.4323Z" fill="#A88F33"/>
<path fill-rule="evenodd" clip-rule="evenodd" d="M11.3099 1.83043L11.3034 1.84596C11.3034 1.84596 11.3228 1.85244 11.3189 1.87838C11.3192 1.91388 11.317 1.94935 11.3124 1.98454C11.306 2.02985 11.2931 2.06475 11.2905 2.09326C11.2905 2.1541 11.2996 2.22399 11.2137 2.39747C11.1881 2.44534 11.1723 2.48673 11.1594 2.51523C11.127 2.58512 11.1205 2.59553 11.092 2.62787C11.1374 2.60227 11.3005 2.49987 11.3833 2.51523C11.3264 2.54757 11.2396 2.61106 11.1852 2.69392C11.1982 2.69648 11.2525 2.70689 11.3388 2.69392C11.4825 2.67191 11.643 2.62011 11.7841 2.63043C11.9382 2.63948 11.8773 2.44534 11.8773 2.44534L11.6995 2.05443L11.363 1.81763L11.3099 1.83051V1.83043Z" fill="#BE9C44"/>
<path fill-rule="evenodd" clip-rule="evenodd" d="M12.1877 4.75862C12.1877 4.75862 12.0375 4.60843 11.9766 4.09302C11.9158 3.57521 11.9288 2.81302 11.9288 2.81302L11.8071 2.51529C11.8071 2.51529 11.7815 2.31723 11.7177 2.2435C11.654 2.16977 11.5288 2.04544 11.4718 1.9846C11.4148 1.92376 11.3501 1.8409 11.3113 1.82793C11.3306 1.79559 11.4174 1.61306 11.7501 1.6105C12.0827 1.60794 12.1853 1.79303 12.22 1.86036C12.2547 1.92768 12.4116 2.21876 12.4698 2.77342C12.5241 3.32741 12.5268 3.36888 12.5177 3.56045C12.5112 3.66661 12.4763 3.91254 12.4153 4.17528C12.3597 4.398 12.2988 4.64657 12.1875 4.75913L12.1877 4.75862Z" fill="#A17C34"/>
<path fill-rule="evenodd" clip-rule="evenodd" d="M11.7166 5.19998C11.7667 5.20359 11.8167 5.19231 11.8603 5.16756C11.9082 5.165 12.0817 5.18701 12.215 5.01746C12.2241 5.0562 12.2474 5.16116 12.1865 5.25434C12.2189 5.22191 12.2668 5.20903 12.2733 5.19998C12.2759 5.24785 12.3212 5.39539 12.1296 5.75396C12.1813 5.69704 12.2422 5.6996 12.2965 5.69312C12.2992 5.76044 12.3353 5.98692 12.2396 6.10868C12.1762 6.19154 12.0726 6.1656 12.0726 6.1656C12.0741 6.14751 12.0741 6.12933 12.0726 6.11124C12.07 6.07626 12.057 6.04136 12.0662 6.01806C12.0161 5.9952 11.9705 5.96362 11.9315 5.92479C11.8189 5.81864 11.6726 5.63748 11.6623 5.50283C11.6493 5.35264 11.784 5.3203 11.784 5.3203C11.7727 5.31021 11.7631 5.2984 11.7555 5.28531C11.749 5.26338 11.7425 5.2284 11.7166 5.19998Z" fill="#8C6228"/>
<path fill-rule="evenodd" clip-rule="evenodd" d="M10.7181 3.57143C10.7181 3.57143 10.7117 3.56238 10.6768 3.60377C10.6832 3.56238 10.6897 3.52347 10.6923 3.48592C10.7088 3.45116 10.7302 3.41892 10.7558 3.39018C10.7363 3.42892 10.7233 3.46391 10.7233 3.46391C10.7233 3.46391 10.7713 3.37456 10.8412 3.32021C10.8891 3.28138 10.9499 3.26329 10.9758 3.22702C11.0043 3.1882 10.9978 3.18171 11.0043 3.17522C11.0043 3.17522 11.0677 3.13384 11.1648 3.01207C11.1777 2.99654 11.1972 2.97973 11.2102 2.9642C11.2321 2.95515 11.2839 2.93185 11.3447 2.90071C11.4082 2.86581 11.4794 2.81793 11.5234 2.79831C11.6101 2.75948 11.7021 2.76341 11.7447 2.70248C11.7771 2.69343 11.812 2.59632 11.8056 2.51355C11.8535 2.53292 12.0994 2.68567 12.1836 3.01966C12.2444 3.25655 12.1356 3.6216 12.0903 3.79773C12.045 3.97386 12.0386 4.1045 11.9751 4.18472C11.8948 4.29096 11.636 4.44072 11.5726 4.51487C11.5182 4.57572 11.3551 4.72974 11.3615 4.84102C11.368 4.92388 11.4702 4.96902 11.4923 4.98472C11.5144 5.00042 11.5143 5.0197 11.5557 5.01032C11.5972 5.00093 11.6127 4.98182 11.6296 4.98182C11.6489 4.98438 11.6489 4.9883 11.658 4.9883C11.6645 4.98811 11.671 4.98722 11.6774 4.98566C11.6774 4.98566 11.6709 5.1035 11.3952 5.13926C11.3758 5.1419 11.3564 5.1483 11.3318 5.15223C11.3642 5.1367 11.3835 5.1367 11.4185 5.08882C11.3797 5.08234 11.2684 5.07585 11.2399 5.06681C11.2489 5.05128 11.2787 5.00981 11.3032 4.99044C11.3253 4.97106 11.3007 4.96484 11.2813 4.9749C11.248 4.99759 11.216 5.02221 11.1855 5.04863C11.1532 5.07713 11.1247 5.11596 11.0729 5.15103C11.0573 5.09924 11.0599 5.00085 11.1208 4.92968C11.1052 4.93224 11.0754 4.97755 11.047 4.9685C11.0419 4.92129 11.0449 4.87354 11.056 4.82736C11.0716 4.76908 11.1557 4.66685 11.1557 4.66685L11.5621 3.94058L11.6488 3.39044L10.7181 3.57126V3.57143Z" fill="#92723A"/>
<path fill-rule="evenodd" clip-rule="evenodd" d="M10.6963 3.60256C10.6963 3.60256 10.6743 3.61809 10.7183 3.64788C10.7119 3.65692 10.6963 3.68926 10.6769 3.71128C10.6549 3.73688 10.6316 3.75275 10.6225 3.77477C10.6031 3.82008 10.5876 3.85114 10.5876 3.8706C10.5876 3.89005 10.5811 4.0143 10.5268 4.09451C10.5073 4.12301 10.4853 4.17088 10.4697 4.20323C10.4374 4.26014 10.4089 4.30563 10.4024 4.33123C10.3895 4.37654 10.3805 4.50078 10.3805 4.50078C10.3805 4.50078 10.409 4.4658 10.4193 4.45291C10.4037 4.48525 10.3869 4.52015 10.3623 4.54609C10.3778 4.53312 10.4232 4.50078 10.4995 4.43345C10.6057 4.3442 10.7714 4.19401 10.9734 4.07505C10.9125 4.09707 10.8608 4.09707 10.8194 4.10356C10.8517 4.07121 11.143 3.72945 11.2958 3.69711C11.305 3.68535 11.3097 3.67059 11.3087 3.65564L11.1779 3.64276L10.9125 3.69967L10.8738 3.49487L10.6963 3.60231V3.60256Z" fill="#B18E3E"/>
<path fill-rule="evenodd" clip-rule="evenodd" d="M11.1184 4.76766C11.1184 4.76766 11.0834 4.80256 11.0511 4.88934C11.0262 4.86334 11.0048 4.83416 10.9876 4.80256C10.9397 4.72234 10.866 4.62003 10.6938 4.67831C10.6912 4.62395 10.6873 4.59545 10.6938 4.55663C10.7223 4.55023 10.809 4.48034 10.8957 4.37802C10.9566 4.30814 11.0135 4.22784 11.0523 4.12561C11.0779 4.10615 11.1222 4.07381 11.1803 4.03626C11.2632 3.97935 11.3629 3.90161 11.3784 3.81491C11.3396 3.83044 11.2567 3.86927 11.1324 3.86287C11.1803 3.84085 11.2541 3.81755 11.245 3.72173C11.2645 3.70875 11.28 3.69971 11.28 3.69971C11.2654 3.69484 11.2501 3.69265 11.2347 3.69322C11.232 3.68418 11.2282 3.67129 11.2062 3.67769C11.1842 3.68409 11.1806 3.68418 11.1777 3.69322C11.1686 3.69587 11.1389 3.69322 11.1168 3.70884C11.0948 3.72446 11.034 3.77608 11.0107 3.78513C11.0197 3.7696 11.0326 3.74639 11.0326 3.74639C11.0326 3.74639 10.9692 3.75279 10.9239 3.77199C10.841 3.80049 10.7453 3.85229 10.6482 3.90272C10.6572 3.88719 10.6612 3.87712 10.6676 3.87422C10.674 3.87131 10.6896 3.86782 10.6896 3.86517C10.6896 3.86253 10.6832 3.83957 10.687 3.83027C10.716 3.76876 10.7503 3.70987 10.7894 3.65423C10.8347 3.5933 10.8438 3.5066 10.8438 3.5066L11.0418 3.40693L11.5985 3.27893L11.9597 3.30095L11.9144 3.5508L11.701 3.98703L11.5185 4.38442L11.31 4.62788L11.1185 4.76766H11.1184Z" fill="#543E26"/>
<path fill-rule="evenodd" clip-rule="evenodd" d="M12.0204 3.68631C12.0204 3.68631 11.8029 3.95554 11.7421 3.99701C11.7809 3.91415 12.0204 3.42093 12.1071 3.28371C12.0877 3.26818 12.0618 3.26818 12.1226 3.02771C12.0709 3.14931 12.0528 3.2128 12.0101 3.24514C11.9674 3.27748 11.9621 3.26716 11.9333 3.26716C11.9387 3.2573 11.941 3.246 11.9397 3.23481C11.9397 3.23481 11.7572 3.2128 11.6325 3.2128C11.5078 3.2128 11.2611 3.28013 11.1238 3.33448C11.0151 3.3798 10.9542 3.3798 10.9154 3.40821C10.8766 3.44055 10.8546 3.47554 10.8351 3.48458C10.8196 3.49363 10.7458 3.51693 10.7289 3.5415C10.7134 3.5671 10.6876 3.59586 10.6876 3.60234C10.6876 3.60883 10.6811 3.61796 10.7005 3.61139C10.7069 3.60883 10.7549 3.58289 10.8092 3.55055C10.883 3.50916 10.9723 3.46129 11.0371 3.43279C11.2222 3.35897 11.2804 3.37194 11.3632 3.35641C11.4499 3.34088 11.5742 3.30462 11.657 3.30462C11.7398 3.30206 11.8965 3.30462 11.9328 3.3111C11.9172 3.32407 11.9043 3.3396 11.9108 3.39396C11.9108 3.40949 11.8978 3.4263 11.8852 3.46385C11.8464 3.57 11.7726 3.74605 11.7316 3.83539C11.6747 3.95699 11.61 4.0593 11.578 4.12271C11.546 4.18611 11.4756 4.35311 11.4059 4.44245C11.3362 4.5318 11.2997 4.58615 11.2779 4.60561C11.256 4.62506 11.0992 4.74018 11.1109 4.78165C11.1394 4.77261 11.3193 4.70485 11.45 4.55774C11.5806 4.41062 11.6066 4.32085 11.7089 4.24055C11.8111 4.16025 11.8914 4.02568 11.9393 3.91441C11.9794 3.81081 11.9703 3.77847 12.0208 3.68657L12.0204 3.68631Z" fill="#806031"/>
<path fill-rule="evenodd" clip-rule="evenodd" d="M7.33332 5.69587C7.33332 5.69587 7.30482 5.81363 7.24005 5.87191C7.17664 5.92891 7.064 5.97806 7.05111 6.07389C7.03558 6.16964 7.16376 6.21759 7.16376 6.21759C7.16376 6.21759 7.09378 6.3328 7.09378 6.41949C7.09378 6.50884 7.09122 6.52565 7.10026 6.61107C7.09 6.61767 7.08127 6.6264 7.07466 6.63667C7.07466 6.63667 7.08106 6.71953 7.14455 6.77124C7.20805 6.82295 7.26232 6.8541 7.29466 6.84113C7.2996 6.85168 7.30393 6.8625 7.30763 6.87355C7.30763 6.87355 7.35559 6.75187 7.38794 6.64571C7.42028 6.537 7.44878 6.55244 7.46167 6.40618C7.47455 6.25992 7.61527 6.00878 7.61527 6.00878L7.71128 5.79417L7.55469 5.67249L7.33332 5.69578V5.69587Z" fill="#B6903C"/>
<path fill-rule="evenodd" clip-rule="evenodd" d="M7.62429 5.90686C7.592 5.94001 7.56219 5.97549 7.53511 6.01302C7.49373 6.07002 7.46138 6.12173 7.40054 6.14383C7.33969 6.16593 7.30086 6.16576 7.3047 6.22669C7.30854 6.28762 7.36555 6.31339 7.39789 6.34445C7.43288 6.37679 7.46138 6.43115 7.44585 6.49208C7.46522 6.48303 7.50021 6.47262 7.53255 6.40273C7.5649 6.33284 7.79112 5.90695 7.79112 5.90695H7.62429V5.90686Z" fill="#685026"/>
<path fill-rule="evenodd" clip-rule="evenodd" d="M8.51657 4.92425C8.51657 4.92425 8.53594 4.87254 8.51657 4.835C8.49712 4.79617 8.37936 4.7832 8.32107 4.73917C8.26023 4.69386 8.18642 4.66237 8.12558 4.68225C8.13462 4.66024 8.17089 4.61228 8.14111 4.60195C8.11261 4.59291 8.00654 4.64078 7.97804 4.6628C7.94954 4.68481 7.88477 4.71067 7.87189 4.72628C7.859 4.7419 7.8369 4.77159 7.82393 4.75862C7.81096 4.74958 7.80456 4.72628 7.78254 4.73917C7.76053 4.75205 7.65454 4.83884 7.635 4.88935C7.61546 4.93987 7.57152 5.05251 7.43951 5.18059C7.3075 5.30868 7.25049 5.39162 7.28932 5.43949C7.32815 5.48736 7.34632 5.45246 7.35281 5.49385C7.3578 5.53448 7.3556 5.57566 7.34632 5.61553C7.33079 5.68286 7.30494 5.74626 7.33984 5.75923C7.42918 5.78773 7.51596 5.73363 7.53533 5.75019C7.57416 5.78509 7.51332 5.9107 7.60522 5.93527C7.69849 5.96087 7.79039 5.91326 7.79039 5.91326L8.1295 5.73073L8.45573 5.55862L8.62264 5.22846L8.53313 4.95276L8.51606 4.92425H8.51657Z" fill="#D4B968"/>
<path fill-rule="evenodd" clip-rule="evenodd" d="M8.19645 5.71264C8.19645 5.71264 8.13945 5.62594 8.20942 5.54948C8.27939 5.47302 8.37897 5.44077 8.41779 5.39289C8.4104 5.38378 8.40049 5.37704 8.38929 5.37352C8.41507 5.32741 8.45439 5.29032 8.50193 5.26729C8.48256 5.24791 8.45662 5.23238 8.4282 5.23238C8.36472 5.23238 8.32581 5.27121 8.26761 5.27121C8.2107 5.27121 8.20421 5.24271 8.20421 5.24271C8.20421 5.24271 8.30004 5.23366 8.29091 5.19091C8.28186 5.1456 8.26531 5.1456 8.26531 5.1456C8.26531 5.1456 8.45039 5.0688 8.48273 5.02784C8.51507 4.98688 8.51123 4.9385 8.51772 4.91913C8.53965 4.91913 8.66781 4.8518 8.71961 4.8803C8.7714 4.9088 8.73514 4.98646 8.73514 4.98646C8.73514 4.98646 8.89189 4.86861 8.97176 4.75307C9.04164 4.75956 9.07415 4.7052 9.12535 4.7052C9.18884 4.7052 9.2885 4.7919 9.30787 4.97698C9.32084 5.08314 9.34021 5.14398 9.32084 5.33171C9.3118 5.43786 9.31436 5.66451 9.34644 5.77698C9.36837 5.86632 9.42017 5.85727 9.42017 5.85727C9.41222 5.8845 9.39647 5.9088 9.37486 5.92716C9.33987 5.9595 9.33603 6.04501 9.33987 6.07735C9.34503 6.10099 9.35153 6.12432 9.35933 6.14723C9.35933 6.14723 9.31794 6.19511 9.30753 6.22753C9.29849 6.25987 9.25582 6.28189 9.22468 6.28189C9.19353 6.28189 9.20915 6.27924 9.16776 6.28189C9.12638 6.28453 9.11341 6.29093 9.08747 6.28189C9.06153 6.27284 9.04216 6.26243 9.05257 6.17949C9.06161 6.09663 8.73283 5.90378 8.73283 5.90378L8.19525 5.71221L8.19645 5.71264Z" fill="#CCA849"/>
<path fill-rule="evenodd" clip-rule="evenodd" d="M7.57904 6.53071C7.57904 6.53071 7.6968 6.68738 8.18099 6.68738C8.41139 6.68738 8.49169 6.66536 8.53939 6.65239C8.59119 6.63942 8.78532 6.56313 8.98082 6.33265C9.15687 6.12426 9.11804 6.03885 9.11804 6.03885L9.01564 6.02332L8.68284 6.06863L7.69808 6.48804L7.57861 6.53071H7.57904Z" fill="#585136"/>
<path fill-rule="evenodd" clip-rule="evenodd" d="M7.94017 6.56955C7.94017 6.56955 7.52075 6.66281 7.52075 6.39744C7.52075 6.13855 7.77965 5.86669 7.84442 5.81883C7.91175 5.77087 8.07226 5.71643 8.07226 5.71643H8.45933L8.53306 5.91192L8.50072 6.33387L7.94017 6.56946V6.56955Z" fill="#252211"/>
<path fill-rule="evenodd" clip-rule="evenodd" d="M8.32744 5.79552C8.32744 5.79552 8.24723 5.72171 8.0647 5.82113C7.88217 5.92054 7.73454 6.12833 7.72549 6.31701C7.71645 6.48393 7.86271 6.60826 8.09055 6.61475C8.26011 6.62115 8.36243 6.60178 8.41423 6.58915C8.40126 6.57361 8.33393 6.48947 8.33393 6.48947L8.32753 5.79561L8.32744 5.79552Z" fill="#C3B378"/>
<path fill-rule="evenodd" clip-rule="evenodd" d="M8.24826 5.83689C8.24826 5.83689 8.22889 5.82136 8.17146 5.85242C8.12359 5.87802 8.0537 5.94568 7.99935 5.99355C7.96436 6.02205 7.94234 6.03494 7.92255 6.05695C7.84225 6.15278 7.77492 6.30944 7.81383 6.38709C7.85275 6.46474 7.98083 6.55408 8.30705 6.49324L8.24732 5.83698L8.24826 5.83689Z" fill="#E6D89C"/>
<path fill-rule="evenodd" clip-rule="evenodd" d="M8.14222 5.99746C8.14222 5.99746 8.09042 6.07776 8.09042 6.20593C8.09042 6.33667 8.16423 6.54506 8.43609 6.56059C8.64446 6.57356 8.78423 6.26029 8.93569 6.1386C9.05089 6.04542 9.12077 6.04277 9.12077 6.04277C9.12077 6.04277 9.00302 5.91477 8.68849 5.74896C8.37781 5.58196 8.02958 5.55994 7.84058 5.81629C7.92992 5.80981 8.21858 5.73599 8.21858 5.73599L8.35972 5.7813L8.14222 5.99754V5.99746Z" fill="#252211"/>
<path fill-rule="evenodd" clip-rule="evenodd" d="M8.54862 6.16688C8.53957 6.14751 8.53309 6.12157 8.57063 6.11517C8.60816 6.10877 8.62497 6.11253 8.63793 6.14077C8.6509 6.16902 8.66353 6.19257 8.64433 6.20426C8.62497 6.21458 8.57446 6.20426 8.54853 6.16671L8.54862 6.16688ZM8.48779 5.98436C8.48779 5.98436 8.47482 5.99341 8.48131 5.97532C8.48387 5.95339 8.50076 5.91447 8.54213 5.9236C8.58351 5.93274 8.57455 5.97796 8.56772 5.99093C8.5609 6.0039 8.52635 6.02583 8.50042 6.01653C8.49713 6.01569 8.49409 6.01408 8.49153 6.01185C8.48898 6.00961 8.48699 6.0068 8.48573 6.00365C8.48447 6.0005 8.48397 5.9971 8.48426 5.99371C8.48456 5.99033 8.48565 5.98707 8.48745 5.98419L8.48779 5.98436Z" fill="#6F674D"/>
<path fill-rule="evenodd" clip-rule="evenodd" d="M4.98389 6.06718C4.98389 6.06718 5.08629 6.14398 5.20524 6.14099C5.323 6.13835 5.47447 6.01675 5.54436 5.93901C5.58574 5.8937 5.62116 5.84583 5.65956 5.80828C5.69198 5.77594 5.71391 5.76041 5.72944 5.73839C5.75146 5.71279 5.77476 5.66466 5.78645 5.64905C5.75795 5.67106 5.71656 5.70998 5.67381 5.73583C5.63242 5.76143 5.54308 5.80956 5.50681 5.82253C5.47191 5.8355 5.10941 6.02733 5.10941 6.02733L4.98389 6.06718Z" fill="#AC924C"/>
<path fill-rule="evenodd" clip-rule="evenodd" d="M5.14038 5.11075C5.14038 5.11075 5.1973 5.07193 5.30738 5.04727C5.41353 5.02167 5.62712 5.00195 5.62712 5.00195L5.80316 5.07875L5.87305 5.34414L5.74505 5.61994L5.58198 5.72234L5.39681 5.42461L5.14081 5.11127L5.14038 5.11075Z" fill="#9F8E57"/>
<path fill-rule="evenodd" clip-rule="evenodd" d="M4.90981 5.34753L4.84888 5.39301C4.84888 5.39301 4.86449 5.36451 4.87738 5.27781C4.89026 5.19111 4.95768 4.98007 5.05607 4.85838C5.15446 4.73669 5.1519 4.74318 5.1519 4.74318C5.14284 4.74152 5.13354 4.74182 5.12461 4.74404C5.11568 4.74626 5.10732 4.75036 5.1001 4.75607C5.11307 4.72739 5.19593 4.62499 5.27879 4.57379C5.36165 4.52259 5.39399 4.50646 5.48069 4.54819C5.56739 4.58992 5.58941 4.61159 5.65289 4.60903C5.71638 4.60647 5.77066 4.53914 5.77066 4.53914C5.77066 4.53914 5.78363 4.58053 5.73575 4.67636C5.68788 4.77219 5.49887 4.96761 5.49887 4.96761L5.10531 5.23685L4.90981 5.34778V5.34753Z" fill="#EAC970"/>
<path fill-rule="evenodd" clip-rule="evenodd" d="M5.20103 5.07837C5.20103 5.07837 5.48587 5.11719 5.57257 5.03698C5.57513 5.04602 5.58554 5.04602 5.58554 5.05251C5.58484 5.0574 5.58256 5.06192 5.57905 5.06539C5.58848 5.06389 5.598 5.06303 5.60755 5.06283C5.61895 5.06623 5.63068 5.0684 5.64254 5.06932C5.65209 5.06911 5.66161 5.06823 5.67104 5.06667C5.67014 5.07311 5.66795 5.0793 5.66461 5.08487C5.66127 5.09044 5.65684 5.09528 5.65159 5.0991C5.66456 5.0991 5.67718 5.10166 5.67718 5.11199C5.67718 5.12231 5.67974 5.15346 5.66421 5.15994C5.65135 5.1635 5.63765 5.16257 5.62539 5.1573C5.62641 5.18181 5.63307 5.20575 5.64484 5.22727C5.67044 5.27514 5.72506 5.32967 5.79844 5.31397C5.79844 5.31397 5.83719 5.40715 5.67411 5.61426C5.65218 5.64276 5.6288 5.68159 5.60039 5.71393C5.58916 5.7384 5.58058 5.764 5.57479 5.7903C5.57479 5.7903 5.85058 5.68415 5.92952 5.44206C6.00981 5.19869 6.02534 4.95924 6.00981 4.73533C6.00717 4.67184 5.99684 4.62661 5.98131 4.59418C5.94249 4.51389 5.83369 4.52686 5.78974 4.57217C5.72625 4.63566 5.6201 4.79352 5.47256 4.90224C5.32237 5.01095 5.31597 5.03024 5.20068 5.07837H5.20103Z" fill="#D7BC6B"/>
<path fill-rule="evenodd" clip-rule="evenodd" d="M4.85945 5.42791C4.85945 5.42791 4.80509 5.46025 4.77659 5.58151C4.74809 5.70575 4.80219 5.85722 4.83351 5.90509C4.86482 5.95296 4.93591 6.08378 5.08337 6.09026C5.11987 6.09007 5.15596 6.08259 5.18953 6.06825C5.241 6.04464 5.28929 6.01463 5.33323 5.9789C5.39672 5.93103 5.44843 5.88965 5.44195 5.88572C5.42642 5.87923 5.05103 5.56854 5.05103 5.56854L4.90988 5.41101L4.85936 5.42808L4.85945 5.42791Z" fill="#585136"/>
<path fill-rule="evenodd" clip-rule="evenodd" d="M5.21427 5.94311C5.21427 5.94311 5.29064 5.93671 5.33596 5.90821C5.38127 5.87971 5.07056 5.57166 5.07056 5.57166L5.09257 5.90446L5.21427 5.94311Z" fill="#453A25"/>
<path fill-rule="evenodd" clip-rule="evenodd" d="M4.88386 5.40453C4.88386 5.40453 4.84503 5.47834 4.84503 5.49779C4.83855 5.5612 4.858 5.76054 4.87353 5.82394C4.88906 5.89127 4.9732 5.9935 5.082 5.9935C5.14924 5.9935 5.24251 5.95211 5.24251 5.94178C5.24251 5.92881 5.14668 5.91618 5.12082 5.86797C5.10529 5.84237 5.09881 5.77871 5.09522 5.71437C5.09266 5.67298 5.09266 5.62767 5.1082 5.61197C5.14318 5.57314 5.14958 5.46178 5.14958 5.46178L5.27382 5.23096H5.11041L4.91492 5.35264L4.88386 5.40453Z" fill="#84754B"/>
<path fill-rule="evenodd" clip-rule="evenodd" d="M4.83618 5.4757C4.83618 5.4757 4.96418 5.30614 5.07954 5.26723C5.19491 5.22832 5.24653 5.2517 5.24653 5.2517L5.17921 5.4239L5.08338 5.53005L5.08987 5.58441C5.08987 5.58441 5.07425 5.72811 5.17008 5.82778C5.2659 5.92744 5.33707 5.9236 5.37854 5.9236C5.42001 5.9236 5.53905 5.88862 5.59989 5.74492C5.65424 5.61035 5.69955 5.43772 5.59084 5.26467C5.48461 5.09247 5.29696 5.08582 5.2607 5.08582C5.22443 5.08582 4.93969 5.10007 4.83618 5.47544V5.4757Z" fill="#252211"/>
<path fill-rule="evenodd" clip-rule="evenodd" d="M8.12267 6.05163C8.07479 6.02962 8.12011 5.89505 8.16798 5.85358C8.21585 5.81211 8.2767 5.76432 8.38294 5.75775C8.42168 5.75519 8.45923 5.77977 8.45283 5.80571C8.44378 5.85358 8.37645 5.92091 8.31561 5.96878C8.23147 6.03482 8.17703 6.07621 8.12267 6.05163Z" fill="#F7F7E7"/>
<path fill-rule="evenodd" clip-rule="evenodd" d="M5.53379 5.31779C5.56878 5.31523 5.6141 5.34339 5.62315 5.38128C5.63219 5.42267 5.60113 5.50553 5.53379 5.50553C5.47943 5.50553 5.45093 5.4382 5.45093 5.41883C5.45154 5.4029 5.45599 5.38736 5.4639 5.37351C5.46646 5.36959 5.47295 5.32427 5.53379 5.31779Z" fill="#F8F6DE"/>
<path fill-rule="evenodd" clip-rule="evenodd" d="M5.02903 5.34766C5.02903 5.34766 4.93969 5.38904 4.8983 5.47565C4.86873 5.5396 4.85978 5.61117 4.8727 5.68043C4.87919 5.71277 4.91153 5.79298 4.93354 5.82148C4.95556 5.84998 4.98534 5.86944 5.00736 5.86679C5.02937 5.86415 5.0746 5.80595 5.0746 5.77105C5.0746 5.73615 5.07725 5.58854 5.11991 5.50824C5.15746 5.42804 5.02929 5.34774 5.02929 5.34774L5.02903 5.34766Z" fill="#D4C38B"/>
<path fill-rule="evenodd" clip-rule="evenodd" d="M5.04184 5.34104C5.02631 5.35008 5.00046 5.36305 5.00686 5.37986C5.01334 5.39539 5.0677 5.40546 5.08716 5.44334C5.10917 5.48217 5.10917 5.52355 5.10269 5.543C5.1196 5.53497 5.13494 5.52399 5.148 5.51058C5.1765 5.47824 5.2114 5.4343 5.24119 5.4343C5.26064 5.4343 5.28001 5.44334 5.29819 5.44334C5.32669 5.44334 5.35511 5.4343 5.35903 5.40452C5.36543 5.3657 5.30467 5.33071 5.26969 5.3372C5.27617 5.3116 5.28522 5.2738 5.25672 5.24786C5.22821 5.22192 5.13896 5.26731 5.1195 5.28028C5.10004 5.29325 5.04184 5.34112 5.04184 5.34112V5.34104Z" fill="#E2D59D"/>
<path fill-rule="evenodd" clip-rule="evenodd" d="M7.09879 8.06085L7.29036 8.00427L7.34472 8.0431C7.34472 8.0431 7.38346 8.12596 7.44439 8.13628C7.42493 8.17767 7.37442 8.21308 7.37706 8.24244C7.37971 8.27179 7.40556 8.29423 7.40556 8.29423C7.40556 8.29423 7.23336 8.57899 7.57256 8.86597C7.49226 8.89831 7.39003 8.94277 7.33567 8.96837C7.37442 8.97741 7.45727 8.99397 7.49226 9.02537C7.52725 9.05677 7.52725 9.06676 7.55959 9.08621C7.59193 9.10567 7.6113 9.13153 7.6049 9.14313C7.58288 9.13016 7.50907 9.09142 7.49619 9.1276C7.4833 9.16378 7.17644 9.14962 7.17644 9.14962L6.65864 9.24929C6.65864 9.24929 6.67801 9.19749 6.62365 9.14962C6.56025 9.0927 6.4826 9.15218 6.39974 9.08877C6.29102 9.00591 6.2871 8.91009 6.2522 8.8739C6.2871 8.85189 6.35835 8.81955 6.52791 8.7971C6.52142 8.78413 6.49941 8.74531 6.51238 8.71041C6.52791 8.66509 6.59259 8.63659 6.57322 8.58241C6.60172 8.57592 6.61461 8.57592 6.68586 8.48658C6.75319 8.39723 6.79458 8.37786 6.84637 8.37138C6.89817 8.36489 6.92923 8.37138 7.02506 8.28203C7.0923 8.21863 7.07037 8.16427 7.07037 8.16427C7.07037 8.16427 7.11432 8.15002 7.09887 8.06068L7.09879 8.06085Z" fill="#CBAC5A"/>
<path fill-rule="evenodd" clip-rule="evenodd" d="M6.53326 8.08964C6.53582 8.07667 6.54623 8.07019 6.61612 8.07667C6.68601 8.08316 7.12872 8.03529 7.24913 8.02881C7.37082 8.01977 7.79928 8.02616 8.00775 8.07019C8.21623 8.11422 8.42717 8.16601 8.5294 8.19186C8.63181 8.22036 8.66406 8.23059 8.66014 8.24356C8.65758 8.25653 8.63454 8.26916 8.62131 8.26558C8.60842 8.26302 8.26922 8.15944 8.16443 8.13759C8.05964 8.11575 7.69705 8.05731 7.49882 8.06081C7.31373 8.06345 7.23991 8.05825 7.08333 8.07633C6.92665 8.09579 6.66775 8.12164 6.59009 8.11132C6.51329 8.10227 6.52916 8.10227 6.53309 8.0893L6.53326 8.08964Z" fill="#D6BC6F"/>
<path fill-rule="evenodd" clip-rule="evenodd" d="M7.57511 9.10421C7.57511 9.10421 7.84049 9.2479 7.93632 9.42394C8.00621 9.55467 7.89494 9.61944 7.89494 9.61944C7.89494 9.61944 8.04512 9.61944 8.02567 9.70229C8.01662 9.754 7.76677 9.89378 7.59977 9.96759C7.43021 10.0414 7.4367 10.0376 7.35384 10.0504C7.27354 10.0634 7.05347 10.0248 7.00816 10.0893C6.96285 10.1537 6.98256 10.2201 6.99519 10.2304C7.00816 10.2395 7.11303 10.2524 7.11303 10.2524C7.11303 10.2524 7.09102 10.3133 6.87359 10.3198C6.65616 10.3262 6.60172 10.3417 6.58875 10.3651C6.57578 10.387 6.63014 10.3741 6.72989 10.3907C6.82956 10.4062 6.96933 10.4163 6.96933 10.4163C6.96933 10.4163 6.92402 10.4551 6.80626 10.4861C6.67161 10.521 6.46058 10.5535 6.39718 10.5923C6.42952 10.6143 6.47748 10.6467 6.49958 10.6492C6.44522 10.6622 6.36876 10.6907 6.35588 10.701C6.37525 10.714 6.40119 10.7295 6.40119 10.7295C6.40119 10.7295 6.29239 10.8602 6.22899 10.8927C6.16559 10.9251 5.80053 11.0946 5.67492 11.0622C5.36167 10.9794 5.32284 10.6363 5.24647 10.6105C5.13127 10.5717 5.07691 10.6492 4.9746 10.5949C5.01991 10.5625 5.04457 10.5431 5.09244 10.5211C5.04064 10.4955 4.7727 10.3256 4.7727 10.3256C4.74468 10.2646 4.71358 10.205 4.67952 10.147C4.62772 10.0577 4.55152 9.93858 4.49435 9.8337C4.3701 9.60331 4.36362 9.49716 4.25098 9.36643C4.27043 9.34083 4.33767 9.34441 4.33767 9.34441L5.28145 9.6551L6.95491 9.70357L7.39011 9.08228L7.5752 9.10429L7.57511 9.10421Z" fill="#DFC677"/>
<path fill-rule="evenodd" clip-rule="evenodd" d="M5.09619 10.0517C5.10629 10.063 5.11806 10.0726 5.13109 10.0802C5.16352 10.1023 5.21139 10.1282 5.24373 10.1669C5.2567 10.1476 5.28904 10.1126 5.34613 10.1669C5.40322 10.2213 5.47413 10.1826 5.51825 10.1954C5.56356 10.2111 5.56612 10.2175 5.56612 10.2175C5.56612 10.2175 5.59172 10.1954 5.64898 10.1721C5.68397 10.1592 5.72535 10.1501 5.77067 10.1372C5.81205 10.1282 5.85737 10.1152 5.88851 10.1152C5.91701 10.1346 6.01924 10.2432 6.42961 10.0829C6.81668 9.93269 6.90594 9.91588 6.97071 9.93909C6.97719 9.92356 6.98368 9.89378 7.08335 9.89771C7.08335 9.85632 7.00049 9.71518 7.00049 9.71518L6.54353 9.55859H6.29359L5.54411 9.69581L5.12879 9.93278L5.09645 10.0522L5.09619 10.0517Z" fill="#C4A859"/>
<path fill-rule="evenodd" clip-rule="evenodd" d="M4.84644 9.78905C4.84644 9.78905 4.85548 9.85893 4.95908 9.93275C5.06148 10.0065 5.09365 10.0505 5.09365 10.0505C5.09365 10.0505 5.1131 10.0249 5.12863 9.99879C5.14416 9.97029 5.15713 9.93795 5.18299 9.92891C5.23479 9.90689 5.35255 9.94828 5.37849 9.94179C5.4005 9.93539 5.39402 9.89008 5.41732 9.89008C5.47167 9.88743 5.50657 9.92498 5.52603 9.92498C5.54549 9.92498 5.59327 9.92242 5.59976 9.9121C5.60624 9.90177 5.6088 9.79425 5.68262 9.74245C5.76292 9.68554 5.8613 9.71011 5.88742 9.72308C5.88742 9.74245 5.88998 9.79041 5.94177 9.79297C5.99357 9.79553 5.99869 9.78649 6.04417 9.80202C6.08966 9.81755 6.14384 9.79946 6.16842 9.87574C6.19044 9.86934 6.24223 9.86286 6.22926 9.78905C6.25486 9.76967 6.27722 9.7567 6.33166 9.68033C6.34463 9.66096 6.36656 9.63894 6.38346 9.61044C6.42877 9.61044 6.48313 9.6014 6.55558 9.6648C6.53356 9.68033 6.52059 9.6904 6.51419 9.70619C6.53314 9.72495 6.55044 9.7453 6.5659 9.76703C6.58536 9.79263 6.59833 9.82403 6.6229 9.83052C6.67726 9.84605 6.76661 9.82403 6.86627 9.83052C6.9621 9.837 7.04232 9.8719 7.0773 9.89392C7.09028 9.88752 7.09028 9.88487 7.12262 9.89136C7.15496 9.89785 7.17953 9.9004 7.14463 9.85902C7.164 9.86806 7.18602 9.88752 7.20547 9.86806C7.22493 9.84861 7.24038 9.82019 7.29473 9.81371C7.34909 9.80722 7.36855 9.81627 7.39056 9.75935C7.41906 9.68946 7.32067 9.68946 7.32067 9.68946C7.32067 9.68946 7.36599 9.64799 7.4165 9.59363C7.47735 9.53671 7.54724 9.4629 7.56405 9.37228C7.59255 9.20528 7.42947 9.18335 7.42947 9.18335L6.63852 9.42672L5.67152 9.37876L4.84695 9.78913L4.84644 9.78905Z" fill="#927D49"/>
<path fill-rule="evenodd" clip-rule="evenodd" d="M4.13584 7.50428C4.13584 7.50428 4.11024 7.53662 4.09445 7.613C4.07867 7.68937 4.08541 7.68033 4.07244 7.73469C4.05947 7.78904 3.90015 8.33016 3.95988 8.5127C4.01962 8.69523 4.12304 8.76256 4.18772 8.91011C4.20069 8.94245 4.21332 8.96191 4.22006 8.99041C4.24208 9.08616 4.22271 9.15997 4.24856 9.25581C4.25761 9.28815 4.28099 9.3257 4.31589 9.36452C4.39269 9.44474 4.51787 9.52112 4.57189 9.57548C4.64818 9.65578 4.75698 9.81894 4.89547 9.83439C4.96928 9.84343 5.07416 9.81237 5.16085 9.76066C5.23765 9.7127 5.2851 9.64545 5.36565 9.60705C5.42257 9.57855 5.48341 9.56822 5.53777 9.55525C5.65041 9.53323 5.75272 9.52965 5.81356 9.54228C5.90675 9.56174 6.12682 9.62907 6.24876 9.62907C6.34405 9.62753 6.4388 9.61449 6.53096 9.59024C6.71604 9.53588 6.93995 9.44261 7.08758 9.40122C7.17428 9.37562 7.24417 9.36888 7.31542 9.35334C7.4371 9.32484 7.53933 9.28602 7.59761 9.2122C7.55879 9.16689 7.51092 9.09699 7.25193 9.09955C6.95813 9.10604 6.61893 9.26912 6.45194 9.29506C6.28494 9.321 6.21249 9.34293 6.02604 9.2756C5.84326 9.20759 5.8372 9.16262 5.8372 9.16262C5.8372 9.16262 5.64529 9.02838 5.56499 8.68619C5.48469 8.34399 5.56499 8.09463 5.77346 7.85765C5.82781 7.79681 5.81484 7.74245 5.81484 7.74245C5.81484 7.74245 5.95206 7.55736 5.91451 7.38404C5.87313 7.21183 5.60774 7.24682 5.60774 7.24682L4.13592 7.50428H4.13584Z" fill="#6E6342"/>
<path fill-rule="evenodd" clip-rule="evenodd" d="M4.35702 8.08044C4.3456 8.1019 4.34024 8.12605 4.34149 8.15032C4.34405 8.18522 4.35446 8.23052 4.45925 8.33282C4.54859 8.42207 4.52913 8.52172 4.52913 8.52172C4.52913 8.52172 4.5741 8.53077 4.69613 8.47369C4.79196 8.42838 4.82413 8.50867 4.82413 8.50867C4.85202 8.49404 4.88226 8.4844 4.91347 8.48017C4.94175 8.47757 4.96912 8.46883 4.99368 8.45457C4.99368 8.45457 5.10632 8.56976 5.20471 8.62411C5.29406 8.67206 5.34585 8.70439 5.38988 8.67206C5.43127 8.64356 5.43127 8.58529 5.42863 8.55943C5.41836 8.53557 5.40536 8.51298 5.38988 8.49212C5.36138 8.45074 5.31607 8.40279 5.31308 8.36413C5.3066 8.27489 5.38041 8.16867 5.3648 8.14281C5.34918 8.11696 5.29107 8.11048 5.14737 8.16227C4.99855 8.21141 4.35642 8.0807 4.35642 8.0807L4.35702 8.08044Z" fill="#39331F"/>
<path fill-rule="evenodd" clip-rule="evenodd" d="M4.69616 8.65899C4.69616 8.65899 4.62248 8.58911 4.64832 8.24992C4.6796 8.24947 4.71084 8.2525 4.74145 8.25897C4.74145 8.25897 4.78162 8.52178 4.69616 8.65899Z" fill="#292311"/>
<path fill-rule="evenodd" clip-rule="evenodd" d="M4.17085 7.24534C4.18114 7.23773 4.19068 7.22916 4.19935 7.21974C4.17375 7.26761 4.05556 7.45918 4.15139 7.76083C4.24722 8.06111 4.48795 8.28502 4.7844 8.29543C5.08084 8.30584 5.23666 8.16078 5.41484 7.94335C5.48473 7.85666 5.56502 7.74786 5.63619 7.67413C5.74235 7.55885 5.82521 7.52651 5.82521 7.41524C5.82521 7.1874 5.59216 7.08509 5.24912 6.98286C4.90608 6.88063 4.59666 6.89326 4.43615 6.96324C4.27956 7.03952 4.21224 7.11982 4.17076 7.24543L4.17085 7.24534Z" fill="#252211"/>
<path fill-rule="evenodd" clip-rule="evenodd" d="M5.27223 8.76114L5.29782 8.74817C5.29782 8.74817 5.30422 8.64576 5.34569 8.64849C5.38707 8.65498 5.40652 8.70942 5.40259 8.7288C5.40003 8.74817 5.38971 8.7806 5.34825 8.77667C5.2939 8.77795 5.27197 8.76114 5.27197 8.76114H5.27223Z" fill="#3F3824"/>
<path fill-rule="evenodd" clip-rule="evenodd" d="M5.15723 8.32606C5.15723 8.32606 5.18283 8.317 5.21414 8.3481C5.23974 8.3481 5.35136 8.33511 5.38635 8.35715C5.42133 8.3792 5.43166 8.39859 5.43166 8.39859C5.43166 8.39859 5.30093 8.42712 5.22967 8.39859C5.15723 8.37398 5.15723 8.32606 5.15723 8.32606Z" fill="#2D2815"/>
<path fill-rule="evenodd" clip-rule="evenodd" d="M5.73321 8.3456C5.73321 8.33912 5.66331 8.29127 5.58949 8.27566C5.57652 8.2731 5.57387 8.28214 5.56389 8.28214C5.5574 8.27958 5.55484 8.26013 5.55484 8.26013L5.51285 8.28222C5.51285 8.28222 5.50637 8.29127 5.52839 8.30781C5.54776 8.32334 5.58019 8.3363 5.58924 8.36215C5.59828 8.388 5.59828 8.39704 5.60221 8.40096C5.60477 8.40352 5.65008 8.40096 5.6721 8.388C5.69412 8.37503 5.7356 8.35388 5.73295 8.34535L5.73321 8.3456Z" fill="#82764F"/>
<path fill-rule="evenodd" clip-rule="evenodd" d="M5.07935 8.60847C5.07935 8.60847 5.09223 8.51928 5.17902 8.51536C5.26827 8.50888 5.28517 8.59551 5.28517 8.59551L5.23337 8.64727C5.23337 8.64599 5.19455 8.59167 5.07977 8.60847H5.07935Z" fill="#2D2816"/>
<path fill-rule="evenodd" clip-rule="evenodd" d="M5.64258 8.22384C5.64258 8.22384 5.59462 8.27567 5.48856 8.29121C5.47951 8.27823 5.46006 8.25236 5.48856 8.21095C5.51706 8.16954 5.5494 8.15656 5.58174 8.16945C5.59601 8.17177 5.60932 8.17812 5.6201 8.18775C5.63088 8.19739 5.63868 8.20991 5.64258 8.22384Z" fill="#574F35"/>
<path fill-rule="evenodd" clip-rule="evenodd" d="M5.83809 8.28738C5.84074 8.27441 5.83169 8.27185 5.83809 8.26537C5.84449 8.25888 5.87956 8.246 5.88605 8.2524C5.88861 8.25504 5.88605 8.26537 5.88605 8.278C5.88605 8.29062 5.88605 8.30359 5.87956 8.31289C5.87052 8.32586 5.84466 8.33234 5.83169 8.3285C5.81872 8.32466 5.81616 8.30649 5.81616 8.30291C5.82256 8.30035 5.83809 8.29386 5.83809 8.28738ZM6.05911 8.14763C6.05911 8.14114 6.08112 8.12817 6.09409 8.12817C6.11346 8.12817 6.11346 8.1437 6.11611 8.14763C6.12251 8.15019 6.12251 8.14498 6.12899 8.15667C6.13548 8.16836 6.14461 8.18901 6.13804 8.20198C6.13147 8.21494 6.1057 8.2239 6.0993 8.22134C6.09025 8.21486 6.06175 8.15667 6.05911 8.14763Z" fill="#82764F"/>
<path fill-rule="evenodd" clip-rule="evenodd" d="M5.61401 8.31722C5.61401 8.31722 5.64252 8.32362 5.68134 8.35605C5.66837 8.3651 5.64892 8.37542 5.64892 8.37542C5.64892 8.37542 5.64635 8.34564 5.61401 8.31714V8.31722Z" fill="#6E6342"/>
<path fill-rule="evenodd" clip-rule="evenodd" d="M5.55058 8.03234C5.5441 8.02594 5.56996 8.01041 5.58549 8.01297C5.60102 8.01553 5.6075 8.02594 5.62432 8.0285C5.64113 8.03106 5.64377 8.02201 5.64992 8.01553C5.65606 8.00904 5.67842 8.01297 5.68226 8.01553C5.68465 8.01837 5.68682 8.0214 5.68875 8.02457C5.68902 8.01965 5.6903 8.01483 5.69252 8.01043C5.69474 8.00602 5.69784 8.00212 5.70163 7.99897C5.7066 7.99533 5.71232 7.99285 5.71838 7.99172C5.72444 7.9906 5.73068 7.99086 5.73662 7.99249C5.73918 8.00153 5.75215 8.03387 5.74959 8.04036C5.74703 8.04684 5.7082 8.05598 5.70163 8.0494C5.70812 8.06502 5.73662 8.09736 5.74046 8.10376C5.7443 8.11016 5.71196 8.12578 5.69907 8.12322C5.68098 8.12194 5.56961 8.05717 5.55024 8.03259L5.55058 8.03234ZM5.72015 7.81747C5.71775 7.81095 5.71317 7.80546 5.70718 7.80194C5.69813 7.79938 5.66835 7.80194 5.66835 7.81747C5.66835 7.833 5.69395 7.91987 5.72271 7.9651C5.75514 8.01041 5.77707 8.04787 5.79909 8.05828C5.806 8.06143 5.81385 8.06184 5.82105 8.05943C5.82826 8.05703 5.83428 8.05198 5.83792 8.04531C5.84048 8.03882 5.84696 7.99095 5.8444 7.87831C5.84184 7.76567 5.83792 7.65696 5.83143 7.65047C5.82494 7.64399 5.79909 7.64407 5.79004 7.65696C5.781 7.66985 5.72271 7.7981 5.72006 7.81747H5.72015Z" fill="#585136"/>
<path fill-rule="evenodd" clip-rule="evenodd" d="M5.60504 8.4802C5.60504 8.4802 5.55972 8.4517 5.51567 8.47115C5.47428 8.49061 5.47684 8.56698 5.47684 8.56698C5.48615 8.57063 5.49621 8.57194 5.50615 8.57081C5.51609 8.56968 5.5256 8.56614 5.53386 8.5605C5.56236 8.54113 5.59856 8.50878 5.60504 8.48028V8.4802Z" fill="#574F35"/>
<path fill-rule="evenodd" clip-rule="evenodd" d="M5.69039 8.58259C5.68783 8.55699 5.66479 8.55699 5.66479 8.54376C5.66638 8.53744 5.67004 8.53183 5.6752 8.52784C5.68035 8.52385 5.68669 8.5217 5.69321 8.52174C5.70618 8.52174 5.71881 8.53727 5.73468 8.54734C5.75021 8.55639 5.77351 8.57295 5.77607 8.59266C5.77863 8.61237 5.75047 8.66639 5.71915 8.66639C5.68783 8.66639 5.69714 8.6081 5.69065 8.58225L5.69039 8.58259ZM5.94025 8.5476C5.94025 8.5476 5.88845 8.56313 5.89229 8.5476C5.89613 8.53207 5.90791 8.52823 5.92472 8.52823C5.93326 8.51929 5.94475 8.51374 5.95706 8.51261C5.9641 8.51226 5.97102 8.51458 5.97643 8.5191C5.97643 8.5191 6.01142 8.50357 6.02174 8.51261C6.03207 8.52166 6.02439 8.52166 6.03079 8.53207C6.03894 8.54362 6.04429 8.55692 6.04641 8.5709C6.04641 8.58122 6.00758 8.60324 5.97643 8.5994C5.94025 8.59163 5.94665 8.55409 5.94025 8.5476ZM6.24182 8.48931C6.24182 8.48931 6.25735 8.49836 6.24446 8.50877C6.23542 8.51782 6.19011 8.53437 6.15119 8.53727C6.11237 8.53727 6.07747 8.54367 6.07747 8.53079C6.07747 8.5179 6.10981 8.49196 6.12918 8.48547C6.13306 8.48061 6.138 8.47668 6.14361 8.47399C6.14923 8.4713 6.15538 8.46992 6.16161 8.46994C6.17714 8.46994 6.23789 8.46346 6.25479 8.4609C6.27032 8.45825 6.28329 8.4673 6.27416 8.48027C6.27032 8.48931 6.24182 8.48931 6.24182 8.48931ZM6.33116 8.08959C6.33116 8.08959 6.31171 8.13098 6.28978 8.13098C6.26776 8.12842 6.26776 8.12193 6.26776 8.11545C6.26776 8.1064 6.28978 8.0831 6.28713 8.07662C6.28073 8.07662 6.26511 8.07662 6.26776 8.06109C6.26776 8.04811 6.28978 8.03258 6.30915 8.03548C6.32378 8.02346 6.34201 8.01664 6.36094 8.01611C6.38296 8.01611 6.40233 8.02251 6.40233 8.03548C6.40233 8.04846 6.37673 8.07687 6.36734 8.08345C6.35702 8.09377 6.34405 8.10051 6.33116 8.08985V8.08959ZM6.03599 8.85465C6.03599 8.85465 6.01039 8.85729 6.01039 8.87018C6.01039 8.87666 6.01679 8.87666 6.02593 8.87282C6.03119 8.87253 6.03639 8.87164 6.04146 8.87018C6.04402 8.87282 6.04402 8.88571 6.06347 8.88571C6.07945 8.88355 6.09484 8.87828 6.10878 8.87018C6.12432 8.86378 6.13729 8.85721 6.13729 8.84458C6.1308 8.82256 6.11783 8.81215 6.09846 8.81215C6.08853 8.81152 6.07863 8.81377 6.06996 8.81863C6.06996 8.81863 6.06347 8.80566 6.04146 8.81863C6.01944 8.83161 6.022 8.83161 6.02849 8.83809C6.04009 8.84842 6.03625 8.85516 6.03625 8.85516L6.03599 8.85465ZM5.88973 8.98931C5.88973 8.98283 5.92208 8.96985 5.93112 8.97378C5.94017 8.97634 5.96602 9.02549 5.96602 9.0307C5.96602 9.03719 5.93368 9.05272 5.92071 9.05272C5.90774 9.05272 5.88581 9.0307 5.88581 9.02712C5.88581 9.02456 5.90134 9.02072 5.90134 9.01807C5.90518 9.01167 5.88973 8.99605 5.88973 8.98957V8.98931ZM5.78733 8.80029C5.79382 8.79773 5.79382 8.79124 5.80286 8.78475C5.8057 8.78287 5.80892 8.78166 5.81229 8.78122C5.81567 8.78077 5.8191 8.78111 5.82232 8.7822C5.8246 8.77812 5.82776 8.77461 5.83157 8.77191C5.83538 8.76921 5.83974 8.76739 5.84434 8.76658C5.85987 8.76402 5.87284 8.76658 5.86994 8.77306C5.86994 8.79252 5.88291 8.80541 5.88291 8.82094C5.88291 8.83647 5.87386 8.85593 5.84152 8.8689C5.80918 8.87794 5.76515 8.87794 5.75866 8.87538C5.75218 8.87282 5.74569 8.84688 5.75218 8.83391C5.75866 8.82094 5.77675 8.80677 5.78716 8.80029H5.78733Z" fill="#82764F"/>
<path fill-rule="evenodd" clip-rule="evenodd" d="M5.8286 8.80908C5.8286 8.80908 5.80656 8.82205 5.80656 8.82853C5.80461 8.83479 5.80374 8.84134 5.804 8.84789C5.804 8.85173 5.83253 8.84533 5.83637 8.84141C5.83765 8.83885 5.8286 8.81582 5.8286 8.80908Z" fill="#6E6342"/>
<path fill-rule="evenodd" clip-rule="evenodd" d="M5.63599 8.74822C5.64887 8.75086 5.67089 8.74822 5.6877 8.7547C5.70066 8.76118 5.70971 8.77415 5.69674 8.78967C5.68377 8.80519 5.67114 8.82848 5.64239 8.82456C5.61005 8.822 5.57899 8.80519 5.57899 8.79223C5.57845 8.78403 5.57954 8.7758 5.58221 8.76803C5.58487 8.76025 5.58906 8.75308 5.59452 8.74694C5.60749 8.73662 5.61389 8.7431 5.6359 8.74822H5.63599Z" fill="#585136"/>
<path fill-rule="evenodd" clip-rule="evenodd" d="M5.62048 8.76123C5.62048 8.76123 5.5791 8.79357 5.56869 8.80919C5.55573 8.82472 5.49233 8.90493 5.47297 8.92174C5.4794 8.91039 5.48673 8.89958 5.49489 8.8894C5.4693 8.90577 5.45011 8.93045 5.44055 8.95929C5.42502 9.00725 5.52731 9.0331 5.59454 9.05256C5.66178 9.07201 5.6878 9.07816 5.6878 9.07816C5.66304 9.04095 5.64179 9.00153 5.62432 8.9604C5.59873 8.89956 5.5855 8.89307 5.60231 8.86457C5.61528 8.83607 5.63473 8.8167 5.63473 8.79468C5.62697 8.7742 5.62048 8.76123 5.62048 8.76123Z" fill="#574F35"/>
<path fill-rule="evenodd" clip-rule="evenodd" d="M4.1447 8.86355C4.15412 8.86528 4.16378 8.86528 4.1732 8.86355C4.19257 8.86091 4.39456 8.78675 4.60558 8.80006C4.76356 8.80961 4.92014 8.83534 5.07286 8.87687C5.33825 8.94676 5.66831 9.08527 5.8819 9.16429C5.93882 9.18622 5.99454 9.22514 6.0355 9.24058C6.19866 9.30408 6.20506 9.30408 6.30088 9.32089C6.41352 9.33642 6.52872 9.29887 6.64913 9.27301C6.79667 9.24058 7.04908 9.22505 7.27043 9.19271C7.34201 9.18279 7.41261 9.16677 7.48146 9.14483C7.48146 9.14483 7.30542 9.32089 6.88337 9.3843C6.71277 9.4102 6.53941 9.41239 6.36821 9.39078C6.23356 9.37781 6.1443 9.35835 6.07697 9.33898C6.0006 9.31696 5.84393 9.25868 5.65108 9.21097C5.51642 9.17598 5.36624 9.15012 5.19412 9.11778C4.76951 9.04004 4.30871 8.95077 4.14453 8.86406L4.1447 8.86355Z" fill="#252211"/>
<path fill-rule="evenodd" clip-rule="evenodd" d="M3.6683 8.0636C3.5659 8.1503 3.45727 8.23316 3.3512 8.31337L3.03146 8.55904C2.92275 8.63926 2.8166 8.72212 2.7078 8.80241C2.599 8.88271 2.49037 8.959 2.375 9.03281C2.4774 8.94612 2.58603 8.86582 2.69474 8.78688C2.80345 8.70795 2.91618 8.63055 3.02105 8.55051L3.34079 8.30449C3.45079 8.22428 3.55694 8.14142 3.6683 8.06377V8.0636ZM3.10263 8.96975C3.10263 8.96975 3.21783 8.87392 3.36153 8.73935C3.54013 8.57244 3.75892 8.35877 3.82881 8.32003L3.10254 8.96984L3.10263 8.96975Z" fill="#CFB66C"/>
<path fill-rule="evenodd" clip-rule="evenodd" d="M3.10278 8.96954C3.15979 8.91263 3.22063 8.85699 3.28147 8.80256L3.37466 8.72235C3.40316 8.69675 3.43558 8.668 3.464 8.6395C3.52092 8.58259 3.57664 8.52166 3.63356 8.46347C3.66177 8.43421 3.6916 8.40655 3.7229 8.38062C3.73855 8.36677 3.75593 8.35501 3.77461 8.34564C3.79023 8.33659 3.80704 8.32004 3.82897 8.31714C3.81608 8.33659 3.80055 8.34564 3.78758 8.36245C3.77205 8.37542 3.75908 8.39095 3.7462 8.40383C3.7177 8.43233 3.68535 8.45818 3.65685 8.48412C3.59601 8.53591 3.53261 8.58651 3.47176 8.64069C3.41092 8.69487 3.354 8.75332 3.29308 8.80768C3.22711 8.86339 3.16627 8.91774 3.10278 8.96979V8.96954ZM3.87693 8.45178C3.87693 8.45178 3.45495 8.86476 3.36817 8.93199L3.87693 8.45178Z" fill="#CFB66C"/>
<path fill-rule="evenodd" clip-rule="evenodd" d="M3.87692 8.45178C3.83896 8.49572 3.79826 8.53722 3.75507 8.57603L3.62707 8.69771C3.58568 8.7391 3.54677 8.78057 3.50282 8.82196C3.45751 8.86078 3.41612 8.89876 3.36816 8.9346L3.49241 8.81291C3.53388 8.77153 3.57919 8.73663 3.62323 8.69515L3.74747 8.57347C3.79014 8.5308 3.83161 8.48933 3.87692 8.45178ZM3.89629 8.6757C3.8574 8.78426 3.81156 8.8902 3.75908 8.99288C3.65036 9.2104 3.48729 9.48218 3.41604 9.62076L3.89629 8.6757Z" fill="#CFB66C"/>
<path fill-rule="evenodd" clip-rule="evenodd" d="M3.89621 8.67578C3.89621 8.72366 3.88324 8.76514 3.86771 8.80653C3.85257 8.84796 3.83531 8.88858 3.816 8.92823C3.79654 8.96706 3.77453 9.00854 3.75251 9.04609C3.73049 9.08364 3.70464 9.12239 3.68518 9.1613L3.55445 9.39173C3.50914 9.46854 3.46511 9.54578 3.41724 9.6196C3.44958 9.53673 3.49361 9.45907 3.53508 9.38269C3.58039 9.30588 3.62178 9.22907 3.66308 9.14961C3.68325 9.11002 3.70139 9.06943 3.71744 9.028C3.73681 8.98652 3.75618 8.94769 3.7718 8.91014C3.79117 8.86874 3.8067 8.82983 3.82615 8.79236C3.84808 8.75216 3.86626 8.71333 3.89604 8.67578H3.89621Z" fill="#CFB66C"/>
<path fill-rule="evenodd" clip-rule="evenodd" d="M4.35706 9.73718C4.35706 9.73718 4.22907 9.90674 4.24187 10.1216C4.27677 10.0091 4.3208 9.83685 4.35706 9.73718ZM4.47875 9.90717C4.47875 9.90717 4.43344 10.368 4.39589 10.5945C4.44897 10.3326 4.45929 10.3547 4.47875 9.90717ZM5.3266 10.6217C5.3266 10.6217 5.13503 11.1849 5.13111 11.3414C5.17258 11.1805 5.25279 10.8517 5.3266 10.6213V10.6217Z" fill="#DEC270"/>
<path fill-rule="evenodd" clip-rule="evenodd" d="M5.77466 9.70239C5.77466 9.70239 6.08536 10.215 6.3184 10.6525C6.25534 10.4323 6.11027 10.0285 5.77466 9.70239Z" fill="#CBAF59"/>
<path fill-rule="evenodd" clip-rule="evenodd" d="M6.60962 10.457C6.78021 10.7586 6.93404 11.0693 7.07042 11.3878C7.04456 11.1677 6.97459 10.791 6.60962 10.457Z" fill="#E3C677"/>
<path fill-rule="evenodd" clip-rule="evenodd" d="M9.06382 11.2128C9.11553 11.1805 9.21785 11.0044 9.30719 10.9604C9.39645 10.9151 9.46377 10.906 9.54407 10.8167C9.62428 10.7234 9.64647 10.6665 9.82234 10.5928C10.0684 10.4865 9.89914 10.3493 9.89914 10.3493C9.92624 10.3227 9.95521 10.2981 9.98584 10.2756C10.0493 10.2277 10.1231 10.1694 10.1167 10.0671C10.1076 9.89502 10.0753 9.64516 9.93413 9.50018C10.0713 9.47168 10.3341 9.45231 10.4973 9.41092C10.6862 9.36296 10.773 9.29564 10.773 9.29564C10.773 9.29564 10.6643 9.11055 10.8404 8.92418C11.0164 8.73781 11.1601 8.62645 11.2663 8.41798C11.1446 8.40245 10.9591 8.33777 10.4856 8.51765C10.5112 8.52968 10.5359 8.54351 10.5594 8.55904C10.5594 8.55904 10.2682 8.63934 10.1621 8.72868C9.97688 8.88527 9.95358 9.01344 9.75297 9.10927C9.55235 9.2051 9.35037 9.17916 9.18346 9.25681C9.01655 9.33446 8.99189 9.40051 8.93096 9.42901C8.94393 9.44454 8.9284 9.4704 8.95297 9.49242C8.93744 9.51443 8.84682 9.66197 8.75492 9.66197C8.76396 9.69696 8.84161 9.72282 8.84161 9.72282C8.84161 9.72282 8.7847 9.76429 8.63972 9.77461C8.71344 9.85141 8.78342 9.93512 8.97627 10.0568C8.96074 10.0892 8.89597 10.1371 8.92191 10.198C8.95041 10.2588 9.02431 10.3417 9.31931 10.409C9.16912 10.4154 8.99317 10.4504 8.75611 10.418C8.51923 10.3895 8.4804 10.3727 8.33414 10.409C8.34967 10.4245 8.39106 10.4245 8.42732 10.4659C8.3885 10.4685 8.14513 10.4374 8.06227 10.5462C7.97557 10.6588 7.93803 10.8439 7.94451 10.9682C7.8992 10.9902 7.85517 11.029 7.87719 11.1093C7.8992 11.1896 8.0144 11.2155 8.08821 11.2659C8.16194 11.3203 8.16843 11.3396 8.2384 11.3267C8.31213 11.3112 8.42084 11.2375 8.48433 11.2375C8.54781 11.2375 8.59304 11.2854 8.59304 11.2854C8.59304 11.2854 8.76524 11.2025 8.78205 11.218C8.79758 11.2336 8.78461 11.3332 8.80142 11.3488C8.81849 11.3604 9.01245 11.2452 9.06425 11.2128H9.06382Z" fill="#ECD592"/>
<path fill-rule="evenodd" clip-rule="evenodd" d="M12.8271 6.0324C12.0181 3.9431 10.018 3.55603 10.018 3.55603H4.31185L4.33387 5.68416H5.47025V10.4363H4.31177V12.5606H9.86006C11.1972 12.5606 12.2691 11.2168 12.2691 11.2168C13.9856 8.78065 12.827 6.0324 12.827 6.0324H12.8271ZM9.88984 9.78511C9.88984 9.78511 9.45464 10.413 8.98112 10.413H8.03392L8.01148 5.68936H9.22705C9.22705 5.68936 9.79025 5.80712 10.1837 6.92166C10.1837 6.92166 10.7054 8.5174 9.88984 9.78511Z" fill="white" fill-opacity="0.8"/>
</g>
<defs>
<clipPath id="clip0_5_3044">
<rect width="16" height="16" fill="white" transform="translate(0.427002)"/>
</clipPath>
</defs>
</svg>
