<svg width="18" height="16" viewBox="0 0 18 16" fill="none" xmlns="http://www.w3.org/2000/svg">
<g clip-path="url(#clip0_5_2713)">
<path d="M9.48192 15.1344C13.422 15.1344 16.6161 11.9403 16.6161 8.00023C16.6161 4.06015 13.422 0.866089 9.48192 0.866089C5.54184 0.866089 2.34778 4.06015 2.34778 8.00023C2.34778 11.9403 5.54184 15.1344 9.48192 15.1344Z" fill="white"/>
<path d="M9.48169 0.000244141C7.89944 0.000244141 6.35272 0.469436 5.03713 1.34849C3.72154 2.22754 2.69616 3.47697 2.09066 4.93878C1.48516 6.40059 1.32673 8.00912 1.63541 9.56097C1.94409 11.1128 2.70602 12.5383 3.82484 13.6571C4.94366 14.7759 6.36912 15.5378 7.92097 15.8465C9.47282 16.1552 11.0814 15.9968 12.5432 15.3913C14.005 14.7858 15.2544 13.7604 16.1334 12.4448C17.0125 11.1292 17.4817 9.58249 17.4817 8.00024C17.4847 6.95272 17.2814 5.91485 16.8834 4.9459C16.4854 3.97694 15.9004 3.09588 15.1618 2.35301C14.4232 1.61014 13.5456 1.02001 12.579 0.616325C11.6124 0.212637 10.5757 0.00329221 9.52818 0.000244141H9.48169ZM9.61729 8.27143L8.78436 11.0801H13.2396C13.2691 11.0791 13.2985 11.0839 13.3262 11.0942C13.3538 11.1046 13.3792 11.1203 13.4008 11.1404C13.4223 11.1606 13.4397 11.1848 13.452 11.2117C13.4642 11.2386 13.471 11.2676 13.472 11.2971V11.3707L13.0846 12.7073C13.0675 12.7705 13.0295 12.826 12.9767 12.8647C12.9239 12.9034 12.8595 12.923 12.794 12.9203H5.97564L7.1185 9.02688L5.84005 9.41429L6.1306 8.52325L7.40905 8.13584L9.0168 2.67337C9.0345 2.61052 9.07272 2.55539 9.12538 2.51678C9.17803 2.47816 9.24209 2.45828 9.30736 2.46029H11.0313C11.0608 2.45926 11.0903 2.46405 11.1179 2.4744C11.1456 2.48474 11.1709 2.50044 11.1925 2.52059C11.2141 2.54073 11.2315 2.56494 11.2437 2.59182C11.256 2.6187 11.2628 2.64773 11.2638 2.67724V2.75085L9.90784 7.36102L11.1863 6.97361L10.9151 7.90339L9.61729 8.27143Z" fill="#345D9D"/>
</g>
<defs>
<clipPath id="clip0_5_2713">
<rect width="17" height="16" fill="white" transform="translate(0.701416 0.000244141)"/>
</clipPath>
</defs>
</svg>
