<svg width="26" height="26" viewBox="0 0 26 26" fill="none" xmlns="http://www.w3.org/2000/svg">
<path opacity="0.2" d="M13 26C20.1797 26 26 20.1797 26 13C26 5.8203 20.1797 0 13 0C5.8203 0 0 5.8203 0 13C0 20.1797 5.8203 26 13 26Z" fill="#505050"/>
<path fill-rule="evenodd" clip-rule="evenodd" d="M17.1734 7.75407C17.1734 8.16985 16.8513 8.50815 16.4543 8.50815C16.0573 8.50815 15.7352 8.17174 15.7352 7.75596C15.7352 7.34018 16.0573 7.00189 16.4543 7C16.8513 7 17.1734 7.33829 17.1734 7.75407ZM17.2756 9.82921C17.2756 10.1826 17.003 10.468 16.6663 10.468C16.3297 10.468 16.0571 10.1826 16.0571 9.82921C16.0571 9.4758 16.3297 9.19042 16.6663 9.19042C17.003 9.19042 17.2756 9.47769 17.2756 9.82921ZM18.3387 10.7174C18.6736 10.7174 18.9462 10.4321 18.9462 10.0805C18.9462 9.72901 18.6736 9.44363 18.3387 9.44363C18.0039 9.44363 17.7313 9.72901 17.7313 10.0805C17.7313 10.4321 18.0039 10.7174 18.3387 10.7174ZM18.6575 11.8499C18.6575 12.1504 18.4252 12.3942 18.1379 12.3942C17.8506 12.3942 17.6183 12.1504 17.6183 11.8499C17.6183 11.5494 17.8506 11.3056 18.1379 11.3056C18.4252 11.3056 18.6575 11.5494 18.6575 11.8499ZM19.4767 12.9379C19.7658 12.9379 20 12.6922 20 12.3898C20 12.0875 19.7658 11.8418 19.4767 11.8418C19.1876 11.8418 18.9534 12.0875 18.9534 12.3898C18.9534 12.6922 19.1876 12.9379 19.4767 12.9379ZM16.9878 11.6098C16.9878 11.9178 16.7499 12.1673 16.4553 12.1673C16.1608 12.1673 15.9229 11.9159 15.9229 11.6098C15.9229 11.3017 16.1608 11.0522 16.4553 11.0522C16.7499 11.0522 16.9878 11.3017 16.9878 11.6098ZM15.9728 13.5015C16.2198 13.5015 16.4193 13.2917 16.4193 13.0347C16.4193 12.7758 16.2198 12.5679 15.9728 12.5679C15.7258 12.5679 15.5264 12.7777 15.5264 13.0347C15.5264 13.2917 15.7258 13.5015 15.9728 13.5015ZM18.09 13.2724C18.09 13.5294 17.8924 13.7373 17.6472 13.7373C17.4021 13.7373 17.2026 13.5294 17.2045 13.2724C17.2045 13.0154 17.4021 12.8075 17.6472 12.8075C17.8924 12.8075 18.09 13.0154 18.09 13.2724ZM18.9823 14.279C19.2293 14.279 19.4287 14.0692 19.4287 13.8103C19.4287 13.5514 19.2293 13.3416 18.9823 13.3416C18.7353 13.3416 18.5358 13.5514 18.5358 13.8103C18.5358 14.0692 18.7353 14.279 18.9823 14.279ZM18.6997 14.8961C18.6997 15.1134 18.5313 15.2911 18.3228 15.2911C18.1142 15.2911 17.9459 15.1134 17.9459 14.8961C17.9459 14.6788 18.1142 14.5011 18.3228 14.5011C18.5313 14.5011 18.6997 14.6788 18.6997 14.8961ZM16.9814 14.758C17.1937 14.758 17.3675 14.5766 17.3675 14.3536C17.3675 14.1306 17.1955 13.9491 16.9814 13.9491C16.7674 13.9491 16.5954 14.1306 16.5954 14.3536C16.5954 14.5766 16.7692 14.758 16.9814 14.758ZM15.6916 14.1104C15.6916 14.3315 15.5196 14.511 15.3092 14.511C15.097 14.511 14.9268 14.3315 14.9268 14.1104C14.9268 13.8893 15.0988 13.7097 15.3092 13.7097C15.5215 13.7097 15.6916 13.8893 15.6916 14.1104ZM16.2387 15.4617C16.4235 15.4617 16.5717 15.3048 16.5717 15.114C16.5717 14.9212 16.4235 14.7662 16.2387 14.7662C16.0539 14.7662 15.9057 14.9231 15.9057 15.114C15.9057 15.3067 16.0539 15.4617 16.2387 15.4617ZM17.9162 15.6521C17.9162 15.8467 17.7643 16.0036 17.5795 16.0036C17.3947 16.0036 17.2447 15.8467 17.2429 15.6521C17.2429 15.4574 17.3947 15.3006 17.5795 15.3006C17.7662 15.3006 17.9162 15.4574 17.9162 15.6521ZM16.8243 16.4103C16.9707 16.4103 17.0896 16.2855 17.0896 16.1324C17.0896 15.9794 16.9707 15.8546 16.8243 15.8546C16.6779 15.8546 16.559 15.9794 16.559 16.1324C16.5608 16.2855 16.6779 16.4103 16.8243 16.4103ZM16.3486 16.377C16.3486 16.515 16.2425 16.6283 16.1089 16.6283C15.9754 16.6283 15.8674 16.5168 15.8693 16.377C15.8693 16.239 15.9754 16.1256 16.1089 16.1256C16.2407 16.1256 16.3486 16.2371 16.3486 16.377ZM15.4824 15.9056C15.6397 15.9056 15.7678 15.7714 15.7678 15.607C15.7678 15.4426 15.6397 15.3084 15.4824 15.3084C15.325 15.3084 15.1969 15.4426 15.1969 15.607C15.1969 15.7714 15.325 15.9056 15.4824 15.9056ZM14.8956 14.8727C14.8956 15.0654 14.7456 15.2204 14.5626 15.2204C14.3796 15.2204 14.2314 15.0654 14.2296 14.8727C14.2296 14.6799 14.3796 14.5249 14.5626 14.5249C14.7474 14.5249 14.8956 14.6799 14.8956 14.8727ZM17.2897 19.5753C17.6849 19.5753 18.0051 19.2389 18.0051 18.825C18.0051 18.4111 17.6849 18.0747 17.2897 18.0747C16.8945 18.0747 16.5743 18.4111 16.5743 18.825C16.5743 19.2389 16.8945 19.5753 17.2897 19.5753ZM16.068 17.9998C16.068 18.3456 15.8009 18.6254 15.4716 18.6254C15.1422 18.6254 14.8751 18.3456 14.8751 17.9998C14.8751 17.6539 15.1422 17.3742 15.4716 17.3742C15.8009 17.3742 16.068 17.6539 16.068 17.9998ZM14.4331 20C14.7661 20 15.035 19.7184 15.035 19.3688C15.035 19.021 14.7661 18.7375 14.4331 18.7375C14.1001 18.7375 13.8311 19.0191 13.8311 19.3688C13.8311 19.7165 14.1001 20 14.4331 20ZM14.6423 16.9211C14.6423 17.2235 14.4081 17.4673 14.1208 17.4673C13.8335 17.4673 13.5993 17.2216 13.5993 16.9211C13.5993 16.6187 13.8335 16.3749 14.1208 16.3749C14.4081 16.3749 14.6423 16.6187 14.6423 16.9211ZM13.0844 18.8604C13.3717 18.8604 13.6041 18.6166 13.6041 18.3161C13.6041 18.0157 13.3717 17.7719 13.0844 17.7719C12.7972 17.7719 12.5648 18.0157 12.5648 18.3161C12.563 18.6166 12.7972 18.8604 13.0844 18.8604ZM12.4856 19.2641C12.4856 19.5627 12.2551 19.8065 11.9678 19.8065C11.6824 19.8065 11.45 19.5627 11.45 19.2641C11.45 18.9654 11.6805 18.7216 11.9678 18.7216C12.2532 18.7216 12.4856 18.9636 12.4856 19.2641ZM11.0384 18.5753C11.2818 18.5753 11.4812 18.3674 11.4812 18.1123C11.4812 17.8571 11.2836 17.6492 11.0384 17.6492C10.7951 17.6492 10.5957 17.8571 10.5957 18.1123C10.5975 18.3674 10.7951 18.5753 11.0384 18.5753ZM12.5999 17.1624C12.5999 17.4176 12.4023 17.6255 12.1571 17.6255C11.912 17.6255 11.7143 17.4176 11.7143 17.1624C11.7143 16.9073 11.912 16.6994 12.1571 16.6994C12.4023 16.6994 12.5999 16.9054 12.5999 17.1624ZM13.2011 16.2324C13.4463 16.2324 13.6439 16.0245 13.6439 15.7675C13.6439 15.5105 13.4463 15.3026 13.2011 15.3026C12.9559 15.3026 12.7583 15.5105 12.7583 15.7675C12.7583 16.0245 12.9559 16.2324 13.2011 16.2324ZM11.9886 16.0217C11.9886 16.2447 11.8166 16.4243 11.6044 16.4243C11.3921 16.4243 11.2201 16.2447 11.2201 16.0217C11.2201 15.7987 11.3921 15.6192 11.6044 15.6192C11.8166 15.6192 11.9886 15.7987 11.9886 16.0217ZM10.4915 17.3704C10.702 17.3704 10.8721 17.1927 10.8721 16.9716C10.8721 16.7505 10.702 16.5729 10.4915 16.5729C10.2811 16.5729 10.111 16.7505 10.111 16.9716C10.111 17.1927 10.2811 17.3704 10.4915 17.3704ZM10.5647 15.9175C10.5647 16.1065 10.4165 16.2615 10.2354 16.2615C10.0543 16.2615 9.90606 16.1084 9.90606 15.9175C9.90606 15.7285 10.0543 15.5736 10.2354 15.5736C10.4165 15.5736 10.5647 15.7266 10.5647 15.9175ZM10.226 15.2886C10.3816 15.2886 10.5078 15.1563 10.5078 14.9919C10.5078 14.8293 10.3816 14.6952 10.226 14.6952C10.0705 14.6952 9.94428 14.8275 9.94428 14.9919C9.94428 15.1563 10.0705 15.2886 10.226 15.2886ZM10.6209 14.2281C10.6209 14.3661 10.5148 14.4795 10.3812 14.4795C10.2477 14.4795 10.1416 14.3661 10.1416 14.2281C10.1416 14.0901 10.2477 13.9767 10.3812 13.9767C10.513 13.9767 10.6209 14.0901 10.6209 14.2281ZM11.3408 14.3444C11.4982 14.3444 11.6263 14.2102 11.6263 14.0458C11.6263 13.8814 11.4982 13.7472 11.3408 13.7472C11.1835 13.7472 11.0554 13.8814 11.0554 14.0458C11.0554 14.2102 11.1835 14.3444 11.3408 14.3444ZM12.727 13.5726C12.727 13.7635 12.577 13.9203 12.394 13.9203C12.2092 13.9203 12.061 13.7654 12.061 13.5726C12.061 13.3817 12.2111 13.2248 12.394 13.2248C12.5788 13.2248 12.727 13.3798 12.727 13.5726ZM12.6448 15.0238C12.8533 15.0238 13.0235 14.8462 13.0235 14.6269C13.0235 14.4077 12.8533 14.2301 12.6448 14.2301C12.4362 14.2301 12.266 14.4077 12.266 14.6269C12.266 14.8462 12.4343 15.0238 12.6448 15.0238ZM11.6833 14.9717C11.6833 15.1626 11.537 15.3175 11.354 15.3175C11.171 15.3175 11.0228 15.1626 11.0247 14.9717C11.0247 14.7808 11.171 14.6258 11.354 14.6258C11.5351 14.6258 11.6833 14.7808 11.6833 14.9717ZM7.71357 14.8049C8.10695 14.8049 8.42714 14.4704 8.42714 14.0584C8.42714 13.6464 8.10695 13.3119 7.71357 13.3119C7.32019 13.3119 7 13.6464 7 14.0584C7 14.4704 7.32019 14.8049 7.71357 14.8049ZM9.94439 12.8308C9.94439 13.1842 9.67177 13.4715 9.33328 13.4715C8.99662 13.4715 8.72217 13.1861 8.72217 12.8308C8.72217 12.4774 8.99479 12.1901 9.33328 12.1901C9.66994 12.1901 9.94439 12.4774 9.94439 12.8308ZM8.70122 11.8274C9.03788 11.8274 9.30867 11.5421 9.30867 11.1906C9.30867 10.839 9.03605 10.5537 8.70122 10.5537C8.36456 10.5537 8.09377 10.839 8.09377 11.1906C8.09194 11.5421 8.36456 11.8274 8.70122 11.8274ZM10.7842 10.5023C10.7842 10.8047 10.55 11.0485 10.2627 11.0485C9.97545 11.0485 9.74126 10.8047 9.74126 10.5023C9.74126 10.1999 9.97545 9.95612 10.2627 9.95612C10.55 9.95612 10.7842 10.1999 10.7842 10.5023ZM10.9005 12.6886C11.1896 12.6886 11.4238 12.4429 11.4238 12.1405C11.4238 11.8381 11.1896 11.5925 10.9005 11.5925C10.6114 11.5925 10.3772 11.8381 10.3772 12.1405C10.3772 12.4429 10.6114 12.6886 10.9005 12.6886ZM12.7663 11.8812C12.7663 12.1401 12.5669 12.348 12.3217 12.348C12.0747 12.348 11.8753 12.1382 11.8771 11.8812C11.8771 11.6223 12.0765 11.4144 12.3217 11.4144C12.5669 11.4144 12.7663 11.6242 12.7663 11.8812ZM13.5488 12.3522C13.761 12.3522 13.933 12.1726 13.933 11.9515C13.933 11.7304 13.761 11.5509 13.5488 11.5509C13.3365 11.5509 13.1645 11.7304 13.1645 11.9515C13.1664 12.1726 13.3384 12.3522 13.5488 12.3522ZM14.8869 12.2552C14.8869 12.4423 14.7405 12.5935 14.563 12.5935C14.3856 12.5935 14.241 12.4404 14.2392 12.2552C14.2392 12.0681 14.3856 11.9169 14.563 11.9169C14.7424 11.9169 14.8869 12.0681 14.8869 12.2552ZM14.6952 11.3589C14.8507 11.3589 14.977 11.2266 14.977 11.0641C14.977 10.9016 14.8507 10.7693 14.6952 10.7693C14.5397 10.7693 14.4135 10.9016 14.4135 11.0641C14.4135 11.2266 14.5397 11.3589 14.6952 11.3589ZM14.2411 10.6128C14.2411 10.8018 14.0947 10.9549 13.9154 10.9549C13.7342 10.9549 13.5897 10.8018 13.5897 10.6128C13.5897 10.4238 13.7361 10.2707 13.9154 10.2707C14.0947 10.2707 14.2411 10.4238 14.2411 10.6128ZM12.9129 10.7101C13.1233 10.7101 13.2934 10.5305 13.2934 10.3113C13.2934 10.0902 13.1233 9.91252 12.9129 9.91252C12.7025 9.91252 12.5323 10.0921 12.5323 10.3113C12.5323 10.5324 12.7025 10.7101 12.9129 10.7101ZM12.1341 10.2448C12.1341 10.5019 11.9347 10.7116 11.6877 10.7116C11.4425 10.7116 11.2431 10.5038 11.2413 10.2448C11.2413 9.98781 11.4407 9.77803 11.6877 9.77803C11.9347 9.77803 12.1341 9.98781 12.1341 10.2448ZM10.0374 9.54427C10.3174 9.54427 10.5424 9.30803 10.5424 9.0151C10.5424 8.72216 10.3155 8.48592 10.0374 8.48592C9.75749 8.48592 9.53244 8.72216 9.53244 9.0151C9.53244 9.30803 9.75932 9.54427 10.0374 9.54427ZM11.9042 8.75676C11.9042 9.01379 11.7047 9.22357 11.4577 9.22357C11.2107 9.22357 11.0113 9.01379 11.0113 8.75676C11.0113 8.49974 11.2107 8.28996 11.4577 8.28996C11.7047 8.28996 11.9042 8.49974 11.9042 8.75676ZM12.6848 9.22962C12.897 9.22962 13.069 9.05008 13.069 8.82707C13.069 8.60406 12.897 8.42452 12.6848 8.42452C12.4725 8.42452 12.3005 8.60406 12.3005 8.82707C12.3005 9.04819 12.4725 9.22962 12.6848 9.22962ZM14.0153 9.13082C14.0153 9.31792 13.8707 9.46911 13.6914 9.46911C13.5139 9.46911 13.3676 9.31603 13.3676 9.13082C13.3676 8.94371 13.5121 8.79252 13.6914 8.79252C13.8707 8.79252 14.0153 8.94371 14.0153 9.13082ZM14.465 9.88404C14.6242 9.88404 14.7541 9.74796 14.7541 9.58165C14.7541 9.41345 14.6242 9.27927 14.465 9.27927C14.3058 9.27927 14.1759 9.41534 14.1759 9.58165C14.1759 9.74796 14.3058 9.88404 14.465 9.88404ZM15.2703 10.1105C15.2703 10.2485 15.1642 10.36 15.0325 10.36C14.9007 10.36 14.7928 10.2485 14.7946 10.1105C14.7946 9.97258 14.9007 9.86108 15.0325 9.86108C15.1642 9.86108 15.2703 9.97258 15.2703 10.1105Z" fill="white"/>
</svg>
