<svg width="450" height="450" viewBox="0 0 450 450" fill="none" xmlns="http://www.w3.org/2000/svg">
<path d="M311.7 261.041L362.644 312.01L224.775 450L86.925 312.029L137.869 261.041L224.794 348.492L311.7 261.041ZM398.644 174.04L450 225.009L399.094 275.979L348.15 225.009L398.644 174.04ZM224.794 174.04L275.719 224.559L224.775 275.547L173.85 225.009L224.775 174.059L224.794 174.04ZM50.925 174.04L101.438 225.009L50.9625 275.529L0 225.009L50.925 174.04ZM224.812 0L362.662 137.558L311.719 188.509L224.794 101.508L137.887 188.959L86.9437 137.989L224.794 0.0187664L224.812 0Z" fill="white"/>
</svg>
